<?xml version="1.0" encoding="UTF-8" standalone="no"?>
<svg
   xmlns:dc="http://purl.org/dc/elements/1.1/"
   xmlns:cc="http://creativecommons.org/ns#"
   xmlns:rdf="http://www.w3.org/1999/02/22-rdf-syntax-ns#"
   xmlns:svg="http://www.w3.org/2000/svg"
   xmlns="http://www.w3.org/2000/svg"
   xmlns:sodipodi="http://sodipodi.sourceforge.net/DTD/sodipodi-0.dtd"
   xmlns:inkscape="http://www.inkscape.org/namespaces/inkscape"
   data-name="Layer 1"
   width="860.13137"
   height="571.14799"
   viewBox="0 0 860.13137 571.14799"
   version="1.1"
   id="svg74"
   sodipodi:docname="undraw_page_not_found_re_e9o6 (1).svg"
   inkscape:version="1.0.1 (3bc2e813f5, 2020-09-07)">
  <metadata
     id="metadata80">
    <rdf:RDF>
      <cc:Work
         rdf:about="">
        <dc:format>image/svg+xml</dc:format>
        <dc:type
           rdf:resource="http://purl.org/dc/dcmitype/StillImage" />
      </cc:Work>
    </rdf:RDF>
  </metadata>
  <defs
     id="defs78" />
  <sodipodi:namedview
     pagecolor="#ffffff"
     bordercolor="#666666"
     borderopacity="1"
     objecttolerance="10"
     gridtolerance="10"
     guidetolerance="10"
     inkscape:pageopacity="0"
     inkscape:pageshadow="2"
     inkscape:window-width="1600"
     inkscape:window-height="852"
     id="namedview76"
     showgrid="false"
     inkscape:zoom="1.1625708"
     inkscape:cx="430.06567"
     inkscape:cy="285.57401"
     inkscape:window-x="0"
     inkscape:window-y="24"
     inkscape:window-maximized="1"
     inkscape:current-layer="svg74" />
  <path
     d="M605.66974,324.95306c-7.66934-12.68446-16.7572-26.22768-30.98954-30.36953-16.482-4.7965-33.4132,4.73193-47.77473,14.13453a1392.15692,1392.15692,0,0,0-123.89338,91.28311l.04331.49238q46.22556-3.1878,92.451-6.37554c22.26532-1.53546,45.29557-3.2827,64.97195-13.8156,7.46652-3.99683,14.74475-9.33579,23.20555-9.70782,10.51175-.46217,19.67733,6.87923,26.8802,14.54931,42.60731,45.371,54.937,114.75409,102.73817,154.61591A1516.99453,1516.99453,0,0,0,605.66974,324.95306Z"
     transform="translate(-169.93432 -164.42601)"
     fill="#f2f2f2"
     id="path2" />
  <path
     d="M867.57068,709.78146c-4.71167-5.94958-6.6369-7.343-11.28457-13.34761q-56.7644-73.41638-106.70791-151.79237-33.92354-53.23-64.48275-108.50439-14.54864-26.2781-28.29961-52.96872-10.67044-20.6952-20.8646-41.63793c-1.94358-3.98782-3.8321-7.99393-5.71122-12.00922-4.42788-9.44232-8.77341-18.93047-13.43943-28.24449-5.31686-10.61572-11.789-21.74485-21.55259-28.877a29.40493,29.40493,0,0,0-15.31855-5.89458c-7.948-.51336-15.28184,2.76855-22.17568,6.35295-50.43859,26.301-97.65922,59.27589-140.3696,96.79771A730.77816,730.77816,0,0,0,303.32241,496.24719c-1.008,1.43927-3.39164.06417-2.37419-1.38422q6.00933-8.49818,12.25681-16.81288A734.817,734.817,0,0,1,500.80465,303.06436q18.24824-11.82581,37.18269-22.54245c6.36206-3.60275,12.75188-7.15967,19.25136-10.49653,6.37146-3.27274,13.13683-6.21547,20.41563-6.32547,24.7701-.385,37.59539,27.66695,46.40506,46.54248q4.15283,8.9106,8.40636,17.76626,16.0748,33.62106,33.38729,66.628,10.68453,20.379,21.83683,40.51955,34.7071,62.71816,73.77854,122.897c34.5059,53.1429,68.73651,100.08874,108.04585,149.78472C870.59617,709.21309,868.662,711.17491,867.57068,709.78146Z"
     transform="translate(-169.93432 -164.42601)"
     fill="#e4e4e4"
     id="path4" />
  <path
     d="M414.91613,355.804c-1.43911-1.60428-2.86927-3.20856-4.31777-4.81284-11.42244-12.63259-23.6788-25.11847-39.3644-32.36067a57.11025,57.11025,0,0,0-23.92679-5.54622c-8.56213.02753-16.93178,2.27348-24.84306,5.41792-3.74034,1.49427-7.39831,3.1902-11.00078,4.99614-4.11634,2.07182-8.15927,4.28118-12.1834,6.50883q-11.33112,6.27044-22.36816,13.09089-21.9606,13.57221-42.54566,29.21623-10.67111,8.11311-20.90174,16.75788-9.51557,8.03054-18.64618,16.492c-1.30169,1.20091-3.24527-.74255-1.94358-1.94347,1.60428-1.49428,3.22691-2.97938,4.84955-4.44613q6.87547-6.21546,13.9712-12.19257,12.93921-10.91827,26.54851-20.99312,21.16293-15.67614,43.78288-29.22541,11.30361-6.76545,22.91829-12.96259c2.33794-1.24675,4.70318-2.466,7.09572-3.6211a113.11578,113.11578,0,0,1,16.86777-6.86632,60.0063,60.0063,0,0,1,25.476-2.50265,66.32706,66.32706,0,0,1,23.50512,8.1314c15.40091,8.60812,27.34573,21.919,38.97,34.90915C418.03337,355.17141,416.09875,357.12405,414.91613,355.804Z"
     transform="translate(-169.93432 -164.42601)"
     fill="#e4e4e4"
     id="path6" />
  <path
     d="M730.47659,486.71092l36.90462-13.498,18.32327-6.70183c5.96758-2.18267,11.92082-4.66747,18.08988-6.23036a28.53871,28.53871,0,0,1,16.37356.20862,37.73753,37.73753,0,0,1,12.771,7.91666,103.63965,103.63965,0,0,1,10.47487,11.18643c3.98932,4.79426,7.91971,9.63877,11.86772,14.46706q24.44136,29.89094,48.56307,60.04134,24.12117,30.14991,47.91981,60.556,23.85681,30.48041,47.38548,61.21573,2.88229,3.76518,5.75966,7.53415c1.0598,1.38809,3.44949.01962,2.37472-1.38808Q983.582,650.9742,959.54931,620.184q-24.09177-30.86383-48.51647-61.46586-24.42421-30.60141-49.17853-60.93743-6.16706-7.55761-12.35445-15.09858c-3.47953-4.24073-6.91983-8.52718-10.73628-12.47427-7.00539-7.24516-15.75772-13.64794-26.23437-13.82166-6.15972-.10214-12.121,1.85248-17.844,3.92287-6.16968,2.232-12.32455,4.50571-18.48633,6.75941l-37.16269,13.59243-9.29067,3.3981c-1.64875.603-.93651,3.2619.73111,2.652Z"
     transform="translate(-169.93432 -164.42601)"
     fill="#e4e4e4"
     id="path8" />
  <path
     d="M366.37741,334.52609c-18.75411-9.63866-42.77137-7.75087-60.00508,4.29119a855.84708,855.84708,0,0,1,97.37056,22.72581C390.4603,353.75916,380.07013,341.5635,366.37741,334.52609Z"
     transform="translate(-169.93432 -164.42601)"
     fill="#f2f2f2"
     id="path10" />
  <path
     d="M306.18775,338.7841l-3.61042,2.93462c1.22123-1.02713,2.4908-1.99013,3.795-2.90144C306.31073,338.80665,306.24935,338.79473,306.18775,338.7841Z"
     transform="translate(-169.93432 -164.42601)"
     fill="#f2f2f2"
     id="path12" />
  <path
     d="M831.54929,486.84576c-3.6328-4.42207-7.56046-9.05222-12.99421-10.84836l-5.07308.20008A575.436,575.436,0,0,0,966.74929,651.418Q899.14929,569.13192,831.54929,486.84576Z"
     transform="translate(-169.93432 -164.42601)"
     fill="#f2f2f2"
     id="path14" />
  <path
     d="M516.08388,450.36652A37.4811,37.4811,0,0,0,531.015,471.32518c2.82017,1.92011,6.15681,3.76209,7.12158,7.03463a8.37858,8.37858,0,0,1-.87362,6.1499,24.88351,24.88351,0,0,1-3.86126,5.04137l-.13667.512c-6.99843-4.14731-13.65641-9.3934-17.52227-16.55115s-4.40553-16.53895.34116-23.14544"
     transform="translate(-169.93432 -164.42601)"
     fill="#f2f2f2"
     id="path16" />
  <path
     d="M749.08388,653.36652A37.4811,37.4811,0,0,0,764.015,674.32518c2.82017,1.92011,6.15681,3.76209,7.12158,7.03463a8.37858,8.37858,0,0,1-.87362,6.1499,24.88351,24.88351,0,0,1-3.86126,5.04137l-.13667.512c-6.99843-4.14731-13.65641-9.3934-17.52227-16.55115s-4.40553-16.53895.34116-23.14544"
     transform="translate(-169.93432 -164.42601)"
     fill="#f2f2f2"
     id="path18" />
  <path
     d="M284.08388,639.36652A37.4811,37.4811,0,0,0,299.015,660.32518c2.82017,1.92011,6.15681,3.76209,7.12158,7.03463a8.37858,8.37858,0,0,1-.87362,6.1499,24.88351,24.88351,0,0,1-3.86126,5.04137l-.13667.512c-6.99843-4.14731-13.65641-9.3934-17.52227-16.55115s-4.40553-16.53895.34116-23.14544"
     transform="translate(-169.93432 -164.42601)"
     fill="#f2f2f2"
     id="path20" />
  <circle
     cx="649.24878"
     cy="51"
     r="51"
     fill="#48bb78"
     id="circle22" />
  <path
     d="M911.21851,176.29639c-24.7168-3.34094-52.93512,10.01868-59.34131,34.12353a21.59653,21.59653,0,0,0-41.09351,2.10871l2.82972,2.02667a372.27461,372.27461,0,0,0,160.65881-.72638C957.07935,195.76,935.93537,179.63727,911.21851,176.29639Z"
     transform="translate(-169.93432 -164.42601)"
     fill="#f0f0f0"
     id="path24" />
  <path
     d="M805.21851,244.29639c-24.7168-3.34094-52.93512,10.01868-59.34131,34.12353a21.59653,21.59653,0,0,0-41.09351,2.10871l2.82972,2.02667a372.27461,372.27461,0,0,0,160.65881-.72638C851.07935,263.76,829.93537,247.63727,805.21851,244.29639Z"
     transform="translate(-169.93432 -164.42601)"
     fill="#f0f0f0"
     id="path26" />
  <path
     d="M1020.94552,257.15423a.98189.98189,0,0,1-.30176-.04688C756.237,173.48919,523.19942,184.42376,374.26388,208.32122c-20.26856,3.251-40.59131,7.00586-60.40381,11.16113-5.05811,1.05957-10.30567,2.19532-15.59668,3.37793-6.31885,1.40723-12.55371,2.85645-18.53223,4.30567q-3.873.917-7.59472,1.84863c-3.75831.92773-7.57178,1.89453-11.65967,2.957-4.56787,1.17774-9.209,2.41309-13.79737,3.67188a.44239.44239,0,0,1-.05127.01465l.00049.001c-5.18261,1.415-10.33789,2.8711-15.32324,4.3252-2.69824.77929-5.30371,1.54785-7.79932,2.30664-.2788.07715-.52587.15136-.77636.22754l-.53614.16308c-.31054.09473-.61718.1875-.92382.27539l-.01953.00586.00048.001-.81152.252c-.96777.293-1.91211.5791-2.84082.86426-24.54492,7.56641-38.03809,12.94922-38.17139,13.00195a1,1,0,1,1-.74414-1.85644c.13428-.05274,13.69336-5.46289,38.32764-13.05762.93213-.28613,1.87891-.57226,2.84961-.86621l.7539-.23438c.02588-.00976.05176-.01757.07813-.02539.30518-.08691.60986-.17968.91943-.27343l.53711-.16309c.26758-.08105.53125-.16113.80127-.23535,2.47852-.75391,5.09278-1.52441,7.79785-2.30664,4.98731-1.45508,10.14746-2.91113,15.334-4.32813.01611-.00586.03271-.00976.04883-.01464v-.001c4.60449-1.2627,9.26269-2.50293,13.84521-3.68457,4.09424-1.06348,7.915-2.03223,11.67969-2.96192q3.73755-.93017,7.60937-1.85253c5.98536-1.45118,12.23291-2.90235,18.563-4.3125,5.29932-1.1836,10.55567-2.32227,15.62207-3.38282,19.84326-4.16211,40.19776-7.92285,60.49707-11.17871C523.09591,182.415,756.46749,171.46282,1021.2463,255.2011a.99974.99974,0,0,1-.30078,1.95313Z"
     transform="translate(-169.93432 -164.42601)"
     fill="#ccc"
     id="path28" />
  <path
     d="M432.92309,584.266a6.72948,6.72948,0,0,0-1.7-2.67,6.42983,6.42983,0,0,0-.92-.71c-2.61-1.74-6.51-2.13-8.99,0a5.81012,5.81012,0,0,0-.69.71q-1.11,1.365-2.28,2.67c-1.28,1.46-2.59,2.87-3.96,4.24-.39.38-.78.77-1.18,1.15-.23.23-.46.45-.69.67-.88.84-1.78,1.65-2.69,2.45-.48.43-.96.85-1.45,1.26-.73.61-1.46,1.22-2.2,1.81-.07.05-.14.1-.21.16-.02.01-.03.03-.05.04-.01,0-.02,0-.03.02a.17861.17861,0,0,0-.07.05c-.22.15-.37.25-.48.34.04-.01995.08-.05.12-.07-.18.14-.37.28-.55.42-1.75,1.29-3.54,2.53-5.37,3.69a99.21022,99.21022,0,0,1-14.22,7.55c-.33.13-.67.27-1.01.4a85.96993,85.96993,0,0,1-40.85,6.02q-2.13008-.165-4.26-.45c-1.64-.24-3.27-.53-4.89-.86a97.93186,97.93186,0,0,1-18.02-5.44,118.65185,118.65185,0,0,1-20.66-12.12c-1-.71-2.01-1.42-3.02-2.11,1.15-2.82,2.28-5.64,3.38-8.48.55-1.37,1.08-2.74,1.6-4.12,4.09-10.63,7.93-21.36,11.61-32.13q5.58-16.365,10.53-32.92.51-1.68.99-3.36,2.595-8.745,4.98-17.53c.15-.56994.31-1.12994.45-1.7q.68994-2.52,1.35-5.04c1-3.79-1.26-8.32-5.24-9.23a7.63441,7.63441,0,0,0-9.22,5.24c-.43,1.62-.86,3.23-1.3,4.85q-3.165,11.74494-6.66,23.41-.51,1.68-1.02,3.36-7.71,25.41-16.93,50.31-1.11,3.015-2.25,6.01c-.37.98-.74,1.96-1.12,2.94-.73,1.93-1.48,3.86-2.23,5.79-.43006,1.13-.87006,2.26-1.31,3.38-.29.71-.57,1.42-.85,2.12a41.80941,41.80941,0,0,0-8.81-2.12l-.48-.06a27.397,27.397,0,0,0-7.01.06,23.91419,23.91419,0,0,0-17.24,10.66c-4.77,7.51-4.71,18.25,1.98,24.63,6.89,6.57,17.32,6.52,25.43,2.41a28.35124,28.35124,0,0,0,10.52-9.86,50.56939,50.56939,0,0,0,2.74-4.65c.21.14.42.28.63.43.8.56,1.6,1.13,2.39,1.69a111.73777,111.73777,0,0,0,14.51,8.91,108.35887,108.35887,0,0,0,34.62,10.47c.27.03.53.07.8.1,1.33.17,2.67.3,4.01.41a103.78229,103.78229,0,0,0,55.58-11.36q2.175-1.125,4.31-2.36,3.315-1.92,6.48-4.08c1.15-.78,2.27-1.57,3.38-2.4a101.04244,101.04244,0,0,0,13.51-11.95q2.35491-2.475,4.51-5.11005a8.0612,8.0612,0,0,0,2.2-5.3A7.5644,7.5644,0,0,0,432.92309,584.266Zm-165.59,23.82c.21-.15.42-.31.62-.47C267.89312,607.766,267.60308,607.936,267.33312,608.086Zm3.21-3.23c-.23.26-.44.52-.67.78a23.36609,23.36609,0,0,1-2.25,2.2c-.11.1-.23.2-.35.29a.00976.00976,0,0,0-.01.01,3.80417,3.80417,0,0,0-.42005.22q-.645.39-1.31994.72a17.00459,17.00459,0,0,1-2.71.75,16.79925,16.79925,0,0,1-2.13.02h-.02a14.82252,14.82252,0,0,1-1.45-.4c-.24-.12-.47-.25994-.7-.4-.09-.08-.17005-.16-.22-.21a2.44015,2.44015,0,0,1-.26995-.29.0098.0098,0,0,0-.01-.01c-.11005-.2-.23005-.4-.34-.6a.031.031,0,0,1-.01-.02c-.08-.25-.15-.51-.21-.77a12.51066,12.51066,0,0,1,.01-1.37,13.4675,13.4675,0,0,1,.54-1.88,11.06776,11.06776,0,0,1,.69-1.26c.02-.04.12-.2.23-.38.01-.01.01-.01.01-.02.15-.17.3-.35.46-.51.27-.3.56-.56.85-.83a18.02212,18.02212,0,0,1,1.75-1.01,19.48061,19.48061,0,0,1,2.93-.79,24.98945,24.98945,0,0,1,4.41.04,30.30134,30.30134,0,0,1,4.1,1.01,36.94452,36.94452,0,0,1-2.77,4.54C270.6231,604.746,270.58312,604.806,270.54308,604.856Zm-11.12-3.29a2.18029,2.18029,0,0,1-.31.38995A1.40868,1.40868,0,0,1,259.42309,601.566Z"
     transform="translate(-169.93432 -164.42601)"
     fill="#3f3d56"
     id="path30" />
  <path
     d="M402.86309,482.136q-.13494,4.71-.27,9.42-.285,10.455-.59,20.92-.315,11.775-.66,23.54-.165,6.07507-.34,12.15-.465,16.365-.92,32.72c-.03,1.13-.07,2.25-.1,3.38q-.225,8.11506-.45,16.23-.255,8.805-.5,17.61-.18,6.59994-.37,13.21-1.34994,47.895-2.7,95.79a7.64844,7.64844,0,0,1-7.5,7.5,7.56114,7.56114,0,0,1-7.5-7.5q.75-26.94,1.52-53.88.675-24.36,1.37-48.72.225-8.025.45-16.06.345-12.09.68-24.18c.03-1.13.07-2.25.1-3.38.02-.99.05-1.97.08-2.96q.66-23.475,1.32-46.96.27-9.24.52-18.49.3-10.545.6-21.08c.09-3.09.17005-6.17.26-9.26a7.64844,7.64844,0,0,1,7.5-7.5A7.56116,7.56116,0,0,1,402.86309,482.136Z"
     transform="translate(-169.93432 -164.42601)"
     fill="#3f3d56"
     id="path32" />
  <path
     d="M814.29118,484.2172a893.23753,893.23753,0,0,1-28.16112,87.94127c-3.007,7.94641-6.08319,15.877-9.3715,23.71185l.75606-1.7916a54.58274,54.58274,0,0,1-5.58953,10.61184q-.22935.32119-.46685.63642,1.16559-1.49043.4428-.589c-.25405.30065-.5049.60219-.7676.89546a23.66436,23.66436,0,0,1-2.2489,2.20318q-.30139.25767-.61188.5043l.93783-.729c-.10884.25668-.87275.59747-1.11067.74287a18.25362,18.25362,0,0,1-2.40479,1.21853l1.7916-.75606a19.0859,19.0859,0,0,1-4.23122,1.16069l1.9938-.26791a17.02055,17.02055,0,0,1-4.29785.046l1.99379.2679a14.0022,14.0022,0,0,1-3.40493-.917l1.79159.75606a12.01175,12.01175,0,0,1-1.67882-.89614c-.27135-.17688-1.10526-.80852-.01487.02461,1.13336.86595.14562.07434-.08763-.15584-.19427-.19171-.36962-.4-.55974-.595-.88208-.90454.99637,1.55662.39689.49858a18.18179,18.18179,0,0,1-.87827-1.63672l.75606,1.7916a11.92493,11.92493,0,0,1-.728-2.65143l.26791,1.9938a13.65147,13.65147,0,0,1-.00316-3.40491l-.2679,1.9938a15.96371,15.96371,0,0,1,.99486-3.68011l-.75606,1.7916a16.72914,16.72914,0,0,1,1.17794-2.29848,6.72934,6.72934,0,0,1,.72851-1.0714c.04915.01594-1.26865,1.51278-.56937.757.1829-.19767.354-.40592.539-.602.29617-.31382.61354-.60082.92561-.89791,1.04458-.99442-1.46188.966-.25652.17907a19.0489,19.0489,0,0,1,2.74925-1.49923l-1.79159.75606a20.31136,20.31136,0,0,1,4.99523-1.33984l-1.9938.2679a25.62828,25.62828,0,0,1,6.46062.07647l-1.9938-.2679a33.21056,33.21056,0,0,1,7.89178,2.2199l-1.7916-.75606c5.38965,2.31383,10.16308,5.74926,14.928,9.118a111.94962,111.94962,0,0,0,14.50615,8.9065,108.38849,108.38849,0,0,0,34.62226,10.47371,103.93268,103.93268,0,0,0,92.58557-36.75192,8.07773,8.07773,0,0,0,2.1967-5.3033,7.63232,7.63232,0,0,0-2.1967-5.3033c-2.75154-2.52586-7.94926-3.239-10.6066,0a95.63575,95.63575,0,0,1-8.10664,8.72692q-2.01736,1.914-4.14232,3.70983-1.21364,1.02588-2.46086,2.01121c-.3934.31081-1.61863,1.13807.26309-.19744-.43135.30614-.845.64036-1.27058.95478a99.26881,99.26881,0,0,1-20.33215,11.56478l1.79159-.75606a96.8364,96.8364,0,0,1-24.17119,6.62249l1.99379-.2679a97.64308,97.64308,0,0,1-25.75362-.03807l1.99379.2679a99.79982,99.79982,0,0,1-24.857-6.77027l1.7916.75607a116.02515,116.02515,0,0,1-21.7364-12.59112,86.87725,86.87725,0,0,0-11.113-6.99417,42.8238,42.8238,0,0,0-14.43784-4.38851c-9.43884-1.11076-19.0571,2.56562-24.24624,10.72035-4.77557,7.50482-4.71394,18.24362,1.97369,24.62519,6.8877,6.5725,17.31846,6.51693,25.43556,2.40567,7.81741-3.95946,12.51288-12.18539,15.815-19.94186,7.43109-17.45514,14.01023-35.31364,20.1399-53.263q9.09651-26.63712,16.49855-53.81332.91661-3.36581,1.80683-6.73869c1.001-3.78869-1.26094-8.32-5.23829-9.22589a7.63317,7.63317,0,0,0-9.22589,5.23829Z"
     transform="translate(-169.93432 -164.42601)"
     fill="#3f3d56"
     id="path34" />
  <path
     d="M889.12382,482.13557l-2.69954,95.79311-2.68548,95.29418-1.5185,53.88362a7.56465,7.56465,0,0,0,7.5,7.5,7.64923,7.64923,0,0,0,7.5-7.5l2.69955-95.79311,2.68548-95.29418,1.51849-53.88362a7.56465,7.56465,0,0,0-7.5-7.5,7.64923,7.64923,0,0,0-7.5,7.5Z"
     transform="translate(-169.93432 -164.42601)"
     fill="#3f3d56"
     id="path36" />
  <path
     d="M629.52566,700.36106h2.32885V594.31942h54.32863v-2.32291H631.85451V547.25214H673.8102q-.92256-1.17339-1.89893-2.31694H631.85451V515.38231c-.7703-.32846-1.54659-.64493-2.32885-.9435V544.9352h-45.652V507.07c-.78227.03583-1.55258.08959-2.3289.15527v37.71h-36.4201V516.68409c-.78227.34636-1.55258.71061-2.31694,1.0928V544.9352h-30.6158v2.31694h30.6158v44.74437h-30.6158v2.32291h30.6158V700.36106h2.31694V594.31942a36.41283,36.41283,0,0,1,36.4201,36.42007v69.62157h2.3289V594.31942h45.652Zm-84.401-108.36455V547.25214h36.4201v44.74437Zm38.749,0V547.25214h.91362a44.74135,44.74135,0,0,1,44.73842,44.74437Z"
     transform="translate(-169.93432 -164.42601)"
     opacity="0.2"
     id="path38" />
  <path
     d="M615.30309,668.566a63.05854,63.05854,0,0,1-20.05,33.7c-.74.64-1.48,1.26-2.25,1.87q-2.805.25506-5.57.52c-1.53.14-3.04.29-4.54.43l-.27.03-.19-1.64-.76-6.64a37.623,37.623,0,0,1-3.3-32.44c2.64-7.12,7.42-13.41,12.12-19.65,6.49-8.62,12.8-17.14,13.03-27.65a60.54415,60.54415,0,0,1,7.9,13.33,16.432,16.432,0,0,0-5.12,3.76995c-.41.45-.82,1.08-.54,1.62006.24.46.84.57,1.36.62994,1.25.13,2.51.26,3.76.39,1,.11,2,.21,3,.32a63.99025,63.99025,0,0,1,2.45,12.18A61.18851,61.18851,0,0,1,615.30309,668.566Z"
     transform="translate(-169.93432 -164.42601)"
     fill="#3f3d56"
     id="path40" />
  <path
     d="M648.50311,642.356c-5.9,4.29-9.35,10.46-12.03,17.26a16.62776,16.62776,0,0,0-7.17,4.58c-.41.45-.82,1.08-.54,1.62006.24.46.84.57,1.36.62994,1.25.13,2.51.26,3.76.39-2.68,8.04-5.14,16.36-9.88,23.15a36.98942,36.98942,0,0,1-12.03,10.91,38.49166,38.49166,0,0,1-4.02,1.99q-7.62.585-14.95,1.25-2.805.25506-5.57.52c-1.53.14-3.04.29-4.54.43q-.015-.825,0-1.65a63.30382,63.30382,0,0,1,15.25-39.86c.45-.52.91-1.03,1.38-1.54a61.7925,61.7925,0,0,1,16.81-12.7A62.65425,62.65425,0,0,1,648.50311,642.356Z"
     transform="translate(-169.93432 -164.42601)"
     fill="#48bb78"
     id="path42" />
  <path
     d="M589.16308,699.526l-1.15,3.4-.58,1.73c-1.53.14-3.04.29-4.54.43l-.27.03c-1.66.17-3.31.34-4.96.51-.43-.5-.86-1.01-1.28-1.53a62.03045,62.03045,0,0,1,8.07-87.11c-1.32,6.91.22,13.53,2.75,20.1-.27.11-.53.22-.78.34a16.432,16.432,0,0,0-5.12,3.76995c-.41.45-.82,1.08-.54,1.62006.24.46.84.57,1.36.62994,1.25.13,2.51.26,3.76.39,1,.11,2,.21,3,.32q.705.075,1.41.15c.07.15.13.29.2.44,2.85,6.18,5.92,12.39,7.65,18.83a43.66591,43.66591,0,0,1,1.02,4.91A37.604,37.604,0,0,1,589.16308,699.526Z"
     transform="translate(-169.93432 -164.42601)"
     fill="#48bb78"
     id="path44" />
  <path
     d="M689.82123,554.48655c-8.60876-16.79219-21.94605-30.92088-37.63219-41.30357a114.2374,114.2374,0,0,0-52.5626-18.37992q-3.69043-.33535-7.399-.39281c-2.92141-.04371-46.866,12.63176-61.58712,22.98214a114.29462,114.29462,0,0,0-35.333,39.527,102.49972,102.49972,0,0,0-12.12557,51.6334,113.56387,113.56387,0,0,0,14.70268,51.47577,110.47507,110.47507,0,0,0,36.44425,38.74592C549.66655,708.561,565.07375,734.51,583.1831,735.426c18.24576.923,39.05418-23.55495,55.6951-30.98707a104.42533,104.42533,0,0,0,41.72554-34.005,110.24964,110.24964,0,0,0,19.599-48.94777c2.57368-18.08313,1.37415-36.73271-4.80123-54.01627a111.85969,111.85969,0,0,0-5.58024-12.9833c-1.77961-3.50519-6.996-4.7959-10.26142-2.69063a7.67979,7.67979,0,0,0-2.69064,10.26142q1.56766,3.08773,2.91536,6.27758l-.75606-1.7916a101.15088,101.15088,0,0,1,6.87641,25.53816l-.26791-1.99379a109.2286,109.2286,0,0,1-.06613,28.68252l.26791-1.9938a109.73379,109.73379,0,0,1-7.55462,27.67419l.75606-1.79159a104.212,104.212,0,0,1-6.67151,13.09835q-1.92308,3.18563-4.08062,6.22159c-.63172.8881-1.28287,1.761-1.939,2.63114-.85625,1.13555,1.16691-1.48321.28228-.36941-.15068.18972-.30049.3801-.45182.5693q-.68121.85165-1.3818,1.68765a93.61337,93.61337,0,0,1-10.17647,10.38359q-1.36615,1.19232-2.77786,2.33115c-.46871.37832-.932.77269-1.42079,1.12472.01861-.0134,1.57956-1.19945.65556-.511-.2905.21644-.57851.43619-.86961.65184q-2.90994,2.1558-5.97433,4.092a103.48509,103.48509,0,0,1-14.75565,7.7131l1.7916-.75606a109.21493,109.21493,0,0,1-27.59663,7.55154l1.9938-.26791a108.15361,108.15361,0,0,1-28.58907.0506l1.99379.2679a99.835,99.835,0,0,1-25.09531-6.78448l1.79159.75607a93.64314,93.64314,0,0,1-13.41605-6.99094q-3.17437-2-6.18358-4.24743c-.2862-.21359-.56992-.43038-.855-.64549-.9155-.69088.65765.50965.67021.51787a19.16864,19.16864,0,0,1-1.535-1.22469q-1.45353-1.18358-2.86136-2.4218a101.98931,101.98931,0,0,1-10.49319-10.70945q-1.21308-1.43379-2.37407-2.91054c-.33524-.4263-.9465-1.29026.40424.5289-.17775-.23939-.36206-.47414-.54159-.71223q-.64657-.85751-1.27568-1.72793-2.203-3.048-4.18787-6.24586a109.29037,109.29037,0,0,1-7.8054-15.10831l.75606,1.7916a106.58753,106.58753,0,0,1-7.34039-26.837l.26791,1.9938a97.86589,97.86589,0,0,1-.04843-25.63587l-.2679,1.9938A94.673,94.673,0,0,1,505.27587,570.55l-.75606,1.7916a101.55725,101.55725,0,0,1,7.19519-13.85624q2.0655-3.32328,4.37767-6.4847.52528-.71832,1.06244-1.42786c.324-.4279,1.215-1.49333-.30537.38842.14906-.18449.29252-.37428.43942-.56041q1.26882-1.60756,2.59959-3.1649A107.40164,107.40164,0,0,1,530.772,536.21508q1.47408-1.29171,2.99464-2.52906.6909-.56218,1.39108-1.11284c.18664-.14673.37574-.29073.56152-.43858-1.99743,1.58953-.555.43261-.10157.09288q3.13393-2.34833,6.43534-4.46134a103.64393,103.64393,0,0,1,15.38655-8.10791l-1.7916.75606c7.76008-3.25839,42.14086-10.9492,48.394-10.10973l-1.99379-.26791A106.22471,106.22471,0,0,1,628.768,517.419l-1.7916-.75606a110.31334,110.31334,0,0,1,12.6002,6.32922q3.04344,1.78405,5.96742,3.76252,1.38351.93658,2.73809,1.915.677.48917,1.34626.98885c.24789.185.49386.37253.74135.558,1.03924.779-1.43148-1.1281-.34209-.26655a110.84261,110.84261,0,0,1,10.36783,9.2532q2.401,2.445,4.63686,5.04515,1.14659,1.33419,2.24643,2.70757c.36436.45495,1.60506,2.101.08448.08457.37165.49285.74744.98239,1.11436,1.47884a97.97718,97.97718,0,0,1,8.39161,13.53807c1.79317,3.49775,6.98675,4.80186,10.26142,2.69064A7.67666,7.67666,0,0,0,689.82123,554.48655Z"
     transform="translate(-169.93432 -164.42601)"
     fill="#3f3d56"
     id="path46" />
  <path
     d="M602.43116,676.88167a3.77983,3.77983,0,0,1-2.73939-6.55137c.09531-.37882.16368-.65085.259-1.02968q-.05115-.12366-.1029-.24717c-3.47987-8.29769-25.685,14.83336-26.645,22.63179a30.029,30.029,0,0,0,.52714,10.32752A120.39223,120.39223,0,0,1,562.77838,652.01a116.20247,116.20247,0,0,1,.72078-12.96332q.59712-5.293,1.65679-10.51055a121.78667,121.78667,0,0,1,24.1515-51.61646c6.87378.38364,12.898-.66348,13.47967-13.98532.10346-2.36972,1.86113-4.42156,2.24841-6.756-.65621.08607-1.32321.13985-1.97941.18285-.20444.0107-.41958.02149-.624.03228l-.07709.00346a3.745,3.745,0,0,1-3.07566-6.10115q.425-.52305.85054-1.04557c.43036-.53793.87143-1.06507,1.30171-1.60292a1.865,1.865,0,0,0,.13986-.16144c.49494-.61322.98971-1.21564,1.48465-1.82885a10.82911,10.82911,0,0,0-3.55014-3.43169c-4.95941-2.90463-11.80146-.89293-15.38389,3.59313-3.59313,4.486-4.27083,10.77947-3.023,16.3843a43.39764,43.39764,0,0,0,6.003,13.3828c-.269.34429-.54872.67779-.81765,1.02209a122.57366,122.57366,0,0,0-12.79359,20.2681c1.0163-7.93863-11.41159-36.60795-16.21776-42.68052-5.773-7.29409-17.61108-4.11077-18.62815,5.13562q-.01476.13428-.02884.26849,1.07082.60411,2.0964,1.28237a5.12707,5.12707,0,0,1-2.06713,9.33031l-.10452.01613c-9.55573,13.64367,21.07745,49.1547,28.74518,41.18139a125.11045,125.11045,0,0,0-6.73449,31.69282,118.66429,118.66429,0,0,0,.08607,19.15986l-.03231-.22593C558.90163,648.154,529.674,627.51374,521.139,629.233c-4.91675.99041-9.75952.76525-9.01293,5.72484q.01788.11874.03635.2375a34.4418,34.4418,0,0,1,3.862,1.86105q1.07082.60423,2.09639,1.28237a5.12712,5.12712,0,0,1-2.06712,9.33039l-.10464.01606c-.07528.01079-.13987.02157-.21507.03237-4.34967,14.96631,27.90735,39.12,47.5177,31.43461h.01081a125.07484,125.07484,0,0,0,8.402,24.52806H601.679c.10765-.3335.20443-.67779.3013-1.01129a34.102,34.102,0,0,1-8.30521-.49477c2.22693-2.73257,4.45377-5.48664,6.6807-8.21913a1.86122,1.86122,0,0,0,.13986-.16135c1.12956-1.39849,2.26992-2.78627,3.39948-4.18476l.00061-.00173a49.95232,49.95232,0,0,0-1.46367-12.72495Zm-34.37066-67.613.0158-.02133-.0158.04282Zm-6.64832,59.93237-.25822-.58084c.01079-.41957.01079-.83914,0-1.26942,0-.11845-.0215-.23672-.0215-.35508.09678.74228.18285,1.48464.29042,2.22692Z"
     transform="translate(-169.93432 -164.42601)"
     fill="#3f3d56"
     id="path48" />
  <circle
     cx="95.24878"
     cy="439"
     r="11"
     fill="#3f3d56"
     id="circle50" />
  <circle
     cx="227.24878"
     cy="559"
     r="11"
     fill="#3f3d56"
     id="circle52" />
  <circle
     cx="728.24878"
     cy="559"
     r="11"
     fill="#3f3d56"
     id="circle54" />
  <circle
     cx="755.24878"
     cy="419"
     r="11"
     fill="#3f3d56"
     id="circle56" />
  <circle
     cx="723.24878"
     cy="317"
     r="11"
     fill="#3f3d56"
     id="circle58" />
  <path
     d="M434.1831,583.426a10.949,10.949,0,1,1-.21-2.16A10.9921,10.9921,0,0,1,434.1831,583.426Z"
     transform="translate(-169.93432 -164.42601)"
     fill="#3f3d56"
     id="path60" />
  <circle
     cx="484.24878"
     cy="349"
     r="11"
     fill="#3f3d56"
     id="circle62" />
  <path
     d="M545.1831,513.426a10.949,10.949,0,1,1-.21-2.16A10.9921,10.9921,0,0,1,545.1831,513.426Z"
     transform="translate(-169.93432 -164.42601)"
     fill="#3f3d56"
     id="path64" />
  <path
     d="M403.1831,481.426a10.949,10.949,0,1,1-.21-2.16A10.9921,10.9921,0,0,1,403.1831,481.426Z"
     transform="translate(-169.93432 -164.42601)"
     fill="#3f3d56"
     id="path66" />
  <circle
     cx="599.24878"
     cy="443"
     r="11"
     fill="#3f3d56"
     id="circle68" />
  <circle
     cx="426.24878"
     cy="338"
     r="16"
     fill="#3f3d56"
     id="circle70" />
  <path
     d="M1028.875,735.26666l-857.75.30733a1.19068,1.19068,0,1,1,0-2.38136l857.75-.30734a1.19069,1.19069,0,0,1,0,2.38137Z"
     transform="translate(-169.93432 -164.42601)"
     fill="#cacaca"
     id="path72" />
  <path
     style="opacity:0.25;fill:#f2f2f2;fill-opacity:1;stroke-width:0.860163"
     d="m 213.11345,567.06224 c -0.45758,-0.59136 -1.02932,-1.65582 -1.27055,-2.36545 -0.24122,-0.70963 0.23127,-24.51464 1.04998,-52.9 0.81872,-28.38537 1.40705,-51.70706 1.30741,-51.82598 -0.0996,-0.11892 -3.20724,0.55773 -6.90579,1.50366 -20.29294,5.19005 -41.63617,4.13451 -61.51259,-3.04218 -8.43124,-3.04421 -13.48371,-5.61012 -22.24765,-11.29849 -3.95715,-2.56844 -7.26337,-4.55292 -7.34717,-4.40996 -6.53168,11.14404 -13.12436,16.07167 -22.51032,16.82508 -6.553388,0.52604 -10.736318,-0.78447 -15.106849,-4.73298 -11.118945,-10.0453 -4.381681,-29.52603 11.718274,-33.88328 3.213351,-0.86965 11.072955,-0.59306 17.217965,0.60592 l 2.58198,0.50378 5.74387,-15.38701 c 8.41433,-22.54082 16.22224,-46.20671 22.61163,-68.53623 3.10169,-10.8397 6.10253,-20.26655 6.66854,-20.94855 1.72263,-2.07565 4.70074,-2.78568 7.53701,-1.79695 3.03851,1.05923 4.31484,3.01219 4.31484,6.6023 0,7.28358 -19.95312,69.6908 -31.78637,99.41797 -1.48776,3.73752 -2.53536,7.23761 -2.328,7.77798 0.64412,1.67856 12.03734,8.87898 20.47346,12.93906 14.36421,6.91311 30.88612,9.79863 46.82293,8.17753 8.62897,-0.87773 22.12376,-4.20543 23.78301,-5.86467 0.51113,-0.51114 1.51921,-24.16071 2.52093,-59.14121 l 1.66919,-58.28948 -2.11118,-1.78597 c -9.79688,-8.28775 0.46066,-23.64689 11.45511,-17.15231 5.55383,3.28073 5.37175,-0.24545 3.43752,66.57231 -0.96192,33.22944 -1.63732,60.7485 -1.5009,61.15344 0.31401,0.9321 6.23618,-2.98721 10.8924,-7.20863 3.49771,-3.1711 3.55354,-3.31163 3.07498,-7.74147 -0.60195,-5.57207 1.54058,-9.55831 6.17912,-11.49641 2.62236,-1.09569 3.62017,-1.12029 6.62169,-0.16328 6.32813,2.01768 9.10618,8.8969 6.28451,15.56216 -1.68443,3.97894 -16.46145,17.89026 -24.35456,22.92779 -3.70137,2.36229 -7.3703,4.79233 -8.15318,5.40012 -1.26272,0.98029 -1.53122,5.6204 -2.37845,41.1026 -0.52528,21.99866 -1.17749,43.19092 -1.44934,47.09391 -0.48804,7.00659 -0.46884,7.09638 1.51829,7.09956 3.07819,0.005 7.46756,3.09371 9.01868,6.34642 1.76649,3.70437 0.97445,8.54232 -1.86303,11.3798 -1.91487,1.91487 -2.69203,2.0543 -11.44987,2.0543 -6.4993,0 -9.65202,-0.33144 -10.22752,-1.0752 z"
     id="path82" />
  <path
     style="opacity:0.25;fill:#f2f2f2;fill-opacity:1;stroke-width:0.860163"
     d="m 400.02765,565.51201 c -2.27693,-1.44398 -9.99741,-8.32705 -17.15662,-15.29571 -7.15921,-6.96866 -16.30686,-14.97194 -20.32813,-17.78509 -28.95147,-20.2535 -46.39681,-51.39955 -48.69236,-86.93295 -2.00544,-31.04282 13.59618,-64.88619 39.9111,-86.57598 2.77044,-2.28351 2.8026,-2.38814 1.50528,-4.89688 -2.25039,-4.35178 -1.71814,-8.26706 1.61883,-11.90833 2.67577,-2.91977 3.35197,-3.21298 7.40972,-3.21298 4.14791,0 4.68848,0.25155 7.60626,3.53948 l 3.14101,3.53947 8.58789,-3.35047 c 4.72334,-1.84276 12.93345,-4.74732 18.2447,-6.45458 6.72167,-2.16062 9.80479,-3.57031 10.14364,-4.63795 0.82355,-2.59479 7.00953,-7.54571 10.65435,-8.52715 5.74863,-1.54795 12.71392,1.1911 16.28613,6.40441 1.55151,2.26427 2.95189,3.12241 6.43645,3.9442 6.56705,1.54876 18.3638,5.8099 24.11485,8.7106 l 5.03856,2.54133 1.24983,-1.78438 c 4.82311,-6.88595 15.46344,-5.00728 18.33518,3.2373 1.18863,3.41246 1.15729,3.8856 -0.4539,6.85326 l -1.73066,3.18773 7.76527,7.7695 c 15.40903,15.4174 24.74219,32.73398 29.42374,54.5923 2.15116,10.04379 2.10855,32.65703 -0.081,43.00813 -4.87197,23.03204 -14.60295,41.62471 -29.67249,56.69424 -8.38513,8.38513 -15.00729,13.11229 -28.31288,20.21084 -5.7989,3.09372 -15.07526,9.00411 -20.61411,13.1342 -5.53885,4.13009 -13.32306,9.55937 -17.29824,12.06507 l -7.2276,4.55582 H 415.05 c -10.65535,0 -10.96886,-0.0548 -15.02233,-2.62543 z m 38.73825,-31.39224 c 49.99696,-8.71874 81.88903,-51.14494 77.6922,-103.35435 -1.90396,-23.68562 -13.45578,-46.33578 -31.50183,-61.76708 -11.19346,-9.57159 -26.06006,-17.50712 -39.37941,-21.02003 l -6.0494,-1.59549 -2.58048,2.3936 c -3.76197,3.48951 -6.21115,4.51885 -10.75204,4.51885 -4.20421,0 -6.95483,-1.02961 -9.90634,-3.70814 -1.68388,-1.52815 -1.99944,-1.51425 -10.75203,0.47347 -14.40436,3.27123 -22.27457,6.10703 -30.43577,10.96664 -21.66541,12.90071 -37.01726,32.47999 -44.02775,56.15165 -3.0723,10.37394 -3.85079,28.84769 -1.69834,40.30197 2.81278,14.96821 9.85813,30.81044 18.99118,42.70373 11.74225,15.29104 32.76286,29.44475 47.93371,32.27499 l 3.22091,0.60089 -1.2585,-3.56699 c -0.69218,-1.96184 -2.05698,-6.24813 -3.0329,-9.52507 -1.72648,-5.7972 -1.83324,-5.93572 -3.95378,-5.12949 -8.67302,3.29748 -25.9621,-2.80541 -36.37523,-12.84012 -8.38546,-8.08073 -11.17732,-16.33643 -6.54988,-19.36844 4.33828,-2.84256 2.05437,-9.38066 -3.94166,-11.28373 -2.4877,-0.78957 -2.05076,-3.73262 0.71605,-4.82302 4.64654,-1.83119 10.59886,-1.24624 16.13377,1.58551 11.23713,5.74911 23.82262,17.40426 27.63576,25.59291 l 2.01733,4.33215 0.0119,-10.32195 c 0.015,-13.01951 2.72208,-29.53822 6.41711,-39.15695 0.3957,-1.03006 -0.18935,-1.31033 -2.73947,-1.31231 -4.32775,-0.003 -10.16639,-4.08258 -16.04603,-11.21074 -5.6691,-6.87291 -8.69334,-12.35926 -10.37792,-18.82677 -1.61768,-6.21071 -1.05435,-8.72078 2.75437,-12.27281 2.49246,-2.32447 2.89016,-3.17705 2.40743,-5.16098 -0.31804,-1.30708 -1.39473,-3.00842 -2.39265,-3.78075 -1.66517,-1.28875 -1.7191,-1.63428 -0.65572,-4.20151 0.80282,-1.93818 2.25383,-3.28171 4.72458,-4.37464 4.67296,-2.06708 8.97718,-0.99623 12.0175,2.98983 5.06785,6.64429 14.50573,29.95271 15.80583,39.03512 l 0.58435,4.08226 2.89834,-5.16097 c 1.59408,-2.83854 4.78901,-7.9068 7.09984,-11.26279 l 4.20152,-6.10181 -2.13558,-3.82097 c -6.46806,-11.57262 -5.42058,-23.356 2.51205,-28.25864 3.91761,-2.42121 9.17494,-2.29071 12.18983,0.30258 l 2.36938,2.03805 -2.32142,2.75884 c -1.27677,1.51736 -2.3214,3.37604 -2.3214,4.1304 0,1.96485 2.55758,4.51759 4.52616,4.51759 1.25379,0 1.52735,0.38123 1.08012,1.50528 -0.32941,0.82791 -0.91637,3.69089 -1.30436,6.36218 -1.16359,8.01127 -2.76448,9.9023 -9.70652,11.46579 -4.30689,0.96999 -4.6675,1.2815 -9.0606,7.82668 -8.53042,12.70929 -15.1037,28.31659 -18.81086,44.66365 -2.2166,9.77429 -2.21057,35.68626 0.0107,45.99811 4.00993,18.61537 9.1808,29.38009 9.1808,19.11257 0,-5.06959 3.01901,-10.20633 10.24612,-17.43345 5.6157,-5.6157 9.95845,-8.53192 12.71247,-8.53661 2.28093,-0.004 3.39754,1.50992 2.08322,2.82425 -1.52576,1.52575 -1.12763,3.11791 1.35498,5.41872 1.82346,1.68992 2.44711,3.27224 2.95025,7.48535 0.62936,5.27 0.59498,5.39493 -2.53486,9.21318 -6.08451,7.42278 -5.88657,6.8813 -2.51554,6.8813 1.65177,0 6.43912,-0.59917 10.63855,-1.33149 z m -47.25004,-30.65581 c -0.27458,-0.68618 -0.47841,-0.48236 -0.51968,0.51968 -0.0374,0.90675 0.16595,1.41479 0.45177,1.12897 0.28583,-0.28583 0.31639,-1.02772 0.0679,-1.64865 z"
     id="path84" />
  <path
     style="opacity:0.25;fill:#f2f2f2;fill-opacity:1;stroke-width:0.860163"
     d="m 713.95249,566.15833 c -1.1564,-1.76489 -1.14051,-7.58151 0.14683,-53.73688 0.79397,-28.46677 1.25706,-51.94427 1.0291,-52.17224 -0.22796,-0.22796 -3.2868,0.32435 -6.79741,1.22736 -28.6948,7.381 -60.26612,1.79396 -84.60219,-14.9717 -3.24203,-2.23349 -5.98558,-3.93945 -6.09679,-3.791 -0.1112,0.14845 -1.42089,2.07384 -2.91041,4.27867 -9.49444,14.05387 -26.66375,17.13167 -36.03403,6.45951 -6.53791,-7.44628 -5.41545,-19.69282 2.46982,-26.94676 5.93722,-5.46185 16.49056,-7.62798 25.41693,-5.21696 4.00844,1.08269 4.53367,1.06597 5.02685,-0.15997 8.59242,-21.35892 20.30057,-55.9571 28.30329,-83.6376 5.91058,-20.44405 6.99666,-22.52786 11.74143,-22.52786 3.26693,0 6.79295,3.51693 6.79295,6.77545 0,2.87504 -9.90718,37.02065 -16.28946,56.14247 -4.73642,14.19069 -12.45168,35.44667 -17.12879,47.19081 l -1.77305,4.45209 7.48874,4.85894 c 19.71777,12.79355 38.26723,17.66135 60.22571,15.8046 7.61319,-0.64375 22.88942,-4.24645 24.42976,-5.76143 0.33675,-0.3312 1.3745,-26.85709 2.30613,-58.94642 l 1.69387,-58.34424 -2.9246,-2.56783 c -5.10394,-4.48133 -4.83218,-11.18156 0.64032,-15.78636 3.15101,-2.6514 7.74193,-2.80466 11.70143,-0.39061 5.32967,3.2494 5.24925,1.89914 3.53352,59.32917 -0.85509,28.62191 -1.57612,55.83569 -1.6023,60.47506 l -0.0477,8.43521 2.65659,-1.55391 c 1.46112,-0.85466 4.92086,-3.59689 7.68832,-6.09385 4.80113,-4.33186 4.99066,-4.65779 4.13528,-7.11153 -1.09193,-3.13232 -0.50163,-5.79105 1.98863,-8.95692 4.10481,-5.2184 10.81936,-5.73127 15.37619,-1.17444 5.93476,5.93475 3.85576,12.21123 -7.75094,23.40013 -6.22404,5.99999 -20.35662,16.53274 -23.9769,17.86954 -0.45731,0.16886 -1.21043,14.76345 -1.74643,33.84324 -0.51831,18.45049 -1.18261,39.78482 -1.47623,47.40962 l -0.53386,13.86328 3.04421,0.57109 c 7.41195,1.3905 10.93131,11.06478 6.10974,16.79489 l -2.22688,2.64649 h -9.36549 c -8.82454,0 -9.4404,-0.11431 -10.66227,-1.97911 z"
     id="path86" />
  <path
     style="opacity:0.25;fill:#f2f2f2;fill-opacity:1;stroke-width:0.860163"
     d="m 533.64382,365.36759 c -16.22916,-16.59468 -24.30876,-28.97775 -45.26792,-69.37909 -20.51358,-39.54243 -29.23164,-53.85916 -42.30241,-69.46867 -8.00735,-9.56262 -13.86144,-14.55251 -21.16879,-18.04375 -8.9909,-4.29559 -15.9608,-3.25475 -29.65022,4.42777 -20.90087,11.72959 -31.78669,13.86012 -92.0628,18.0182 -20.57939,1.41964 -43.61025,3.02036 -51.17968,3.55716 -7.56943,0.53679 -14.64035,0.83405 -15.71315,0.66059 -1.58849,-0.25685 0.96608,-2.64243 13.7626,-12.85214 32.34258,-25.80454 60.14595,-46.19781 93.12779,-68.30754 31.11915,-20.86106 40.48778,-25.07682 54.13592,-24.36047 11.33351,0.59485 20.10809,5.95284 29.28972,17.88507 11.51367,14.96287 46.61606,77.6297 70.11134,125.16685 17.99957,36.41786 45.26777,97.30695 44.54644,99.47093 -0.14025,0.42075 -3.57323,-2.62796 -7.62884,-6.77491 z"
     id="path88" />
  <path
     style="opacity:0.25;fill:#f2f2f2;fill-opacity:1;stroke-width:0.860163"
     d="m 218.03558,568.11599 3.87073,-0.58033 -4.05551,-0.12919 c -2.96028,-0.0943 -4.28293,-0.55415 -4.89765,-1.70275 -0.9336,-1.74444 -1.02318,-8.09888 -0.42041,-29.82238 0.85097,-30.66894 1.28788,-46.09416 1.72369,-60.85651 0.28919,-9.7954 0.14585,-15.26788 -0.39992,-15.26788 -1.54848,0 -10.00562,2.05428 -10.4437,2.53683 -0.70753,0.77935 -4.75241,1.00949 -22.36423,1.2724 -9.22524,0.13772 -16.96671,0.0144 -17.20325,-0.27413 -0.23655,-0.2885 -3.78713,-1.37057 -7.89017,-2.40461 -10.86227,-2.73749 -19.6713,-6.51215 -30.26314,-12.96774 l -9.36004,-5.70483 -1.81878,2.53486 c -7.63043,10.63466 -14.34841,14.50739 -24.294495,14.00513 -5.406819,-0.27303 -6.682397,-0.66543 -9.530987,-2.93203 -1.808806,-1.43925 -4.184952,-4.33622 -5.280325,-6.4377 -4.683097,-8.98455 0.818276,-21.90533 11.366399,-26.69568 3.824834,-1.73701 13.421948,-2.14683 20.085758,-0.8577 2.01063,0.38896 3.65569,0.64907 3.65569,0.57803 0,-0.0711 2.69241,-7.43811 5.98312,-16.37124 3.29072,-8.93314 5.80429,-16.53144 5.5857,-16.88512 -0.21858,-0.35367 -0.0658,-0.77287 0.3394,-0.93155 0.69636,-0.27266 8.35061,-22.41552 9.01986,-26.09339 0.17217,-0.94618 0.71827,-2.70211 1.21355,-3.90208 1.11494,-2.70129 4.72191,-14.55611 4.96303,-16.31174 0.0975,-0.70963 0.57055,-2.25793 1.05129,-3.44065 0.48075,-1.18272 1.97016,-6.02114 3.30981,-10.75203 2.88221,-10.17843 5.0015,-12.96338 9.22243,-12.1192 1.49984,0.29997 3.26577,1.08418 3.92428,1.74269 1.64682,1.64683 1.36555,7.43987 -0.70991,14.62097 -0.94816,3.28063 -1.54064,6.14807 -1.31664,6.37208 0.22401,0.224 0.068,0.82997 -0.34674,1.34659 -0.41471,0.51662 -2.3411,6.16479 -4.28087,12.5515 -1.93976,6.38671 -5.84454,18.53647 -8.67728,26.99946 -2.83275,8.46299 -4.96486,15.68755 -4.73802,16.05458 0.22684,0.36702 0.06,0.79715 -0.37075,0.95583 -0.69319,0.25536 -7.24213,17.09044 -11.11402,28.57034 l -1.41564,4.19728 3.32822,2.87702 c 1.83052,1.58236 3.62172,2.69562 3.98044,2.47392 0.35872,-0.2217 0.8469,0.10424 1.08485,0.72431 0.84052,2.19037 19.73239,10.86337 28.56308,13.11292 14.85374,3.78388 32.78398,3.39445 48.81424,-1.0602 2.72026,-0.75593 4.94593,-1.73334 4.94593,-2.172 0,-0.43868 0.33777,-0.58883 0.7506,-0.33368 1.26731,0.78323 2.9092,-37.5459 4.06865,-94.98027 0.19578,-9.69833 0.54039,-18.7166 0.76579,-20.04059 0.32399,-1.9031 -0.21794,-3.03502 -2.58761,-5.40469 -2.47719,-2.47718 -2.99687,-3.62695 -2.99421,-6.62445 0.004,-5.08319 2.53063,-8.87733 6.7527,-10.1423 3.05283,-0.91465 3.77355,-0.8103 7.10317,1.02835 2.91906,1.61194 3.83899,2.6853 4.33399,5.05685 0.8079,3.87068 0.90306,16.21921 0.27509,35.69675 -0.78009,24.19583 -1.32639,43.81191 -1.85088,66.46 l -0.48333,20.87136 3.65425,-1.94778 c 2.00985,-1.07129 5.34703,-3.52314 7.41596,-5.44857 3.66835,-3.4139 3.76169,-3.6343 3.76169,-8.88283 0,-4.77983 0.27641,-5.65848 2.47027,-7.85234 4.4806,-4.4806 9.72343,-4.41981 14.00381,0.16235 1.9317,2.06789 2.4495,3.43021 2.4495,6.44467 0,2.10236 -0.55539,4.89649 -1.23421,6.20917 -1.63591,3.1635 -15.37947,16.18481 -21.93901,20.78607 -2.86669,2.01086 -5.21215,4.00995 -5.21215,4.44241 0,0.43247 -0.2905,0.60676 -0.64555,0.38732 -0.35505,-0.21942 -1.70295,0.44418 -2.99534,1.4747 l -2.3498,1.87366 -0.48106,16.32292 c -0.78821,26.74393 -1.30326,44.62107 -1.77789,61.70837 l -0.44832,16.13992 2.69561,0.53912 c 1.48259,0.29652 4.02024,1.78841 5.63922,3.31531 2.37105,2.23618 2.94299,3.42568 2.9404,6.11527 -0.002,1.83649 -0.77023,4.59707 -1.70768,6.13461 -1.51493,2.48466 -2.16023,2.8091 -5.80288,2.91759 l -4.09842,0.12206 3.44065,0.59994 c 2.3198,0.4045 0.49842,0.59588 -5.59106,0.58746 -6.4087,-0.009 -7.90756,-0.18102 -5.16097,-0.59281 z"
     id="path90" />
  <path
     style="opacity:0.25;fill:#f2f2f2;fill-opacity:1;stroke-width:0.860163"
     d="m 218.72395,567.25326 c -2.22339,-0.37464 -4.50968,-0.96987 -5.08065,-1.32275 -1.04588,-0.64639 -0.88759,-20.76267 0.65441,-83.16421 l 0.56857,-23.00935 h -2.14937 c -1.18217,0 -4.0495,0.62549 -6.37186,1.38997 -3.12949,1.0302 -8.90819,1.49958 -22.32444,1.81335 l -18.10196,0.42334 -10.71349,-3.16835 c -12.33395,-3.64759 -21.44125,-7.71629 -31.72438,-14.17289 l -7.24829,-4.55108 -1.76903,2.46657 c -3.81602,5.32069 -9.39066,10.58096 -13.02249,12.28812 -4.576487,2.1512 -14.6465,2.47191 -18.278607,0.58212 -11.768103,-6.12294 -11.465665,-23.16693 0.564266,-31.79935 l 3.74716,-2.68888 h 11.807422 11.807419 l 5.83378,-16.34309 c 6.72576,-18.84193 18.4684,-54.63133 23.78267,-72.48518 4.42232,-14.85728 5.79169,-17.40182 9.365,-17.40182 2.87558,0 6.04412,2.60531 6.01517,4.94594 -0.0793,6.41397 -16.46896,60.20048 -25.09662,82.36057 -5.93505,15.24412 -9.34727,25.44847 -8.80374,26.32791 0.6411,1.03733 12.55121,8.96459 16.4798,10.96881 1.80571,0.9212 4.04901,1.80898 4.98512,1.97284 0.93611,0.16386 2.23577,0.80403 2.88813,1.42259 0.65236,0.61857 1.71682,0.92102 2.36545,0.67213 0.64863,-0.24891 1.17934,-0.15539 1.17934,0.20781 0,0.7856 3.55316,2.08683 11.18211,4.09506 4.87704,1.28383 23.5463,2.06657 32.2561,1.3524 3.31836,-0.27209 14.65414,-2.93385 17.76413,-4.1712 l 3.14137,-1.24984 0.57331,-6.60657 c 0.31532,-3.63362 0.55866,-8.15486 0.54076,-10.04722 -0.0179,-1.89236 0.15757,-5.37602 0.38993,-7.74147 0.23237,-2.36544 0.97351,-24.42862 1.64696,-49.02927 l 1.22447,-44.72846 -2.14435,-2.24014 c -8.77062,-9.16241 1.78625,-22.31791 11.70001,-14.58004 l 2.15041,1.67843 -0.13862,33.37575 c -0.0762,18.35667 -0.52023,46.34272 -0.98665,62.19121 -0.46641,15.8485 -0.67905,28.99201 -0.47255,29.20781 0.68783,0.71874 6.56452,-2.92207 10.65989,-6.60415 3.89628,-3.50308 4.06538,-3.85488 4.63577,-9.64345 0.51934,-5.2704 0.91084,-6.27602 3.1899,-8.19373 4.85133,-4.08212 12.79115,-1.86233 14.31046,4.00087 1.61852,6.24609 0.5973,8.287 -8.74036,17.46761 -4.81181,4.7309 -11.38162,10.537 -14.59957,12.90244 -3.21795,2.36545 -6.88311,5.13818 -8.14479,6.16162 l -2.29397,1.86079 -0.9862,34.26604 c -0.54241,18.84632 -1.0998,40.01933 -1.23864,47.05114 l -0.25244,12.78512 3.18215,1.09397 c 4.04755,1.39148 5.74806,2.81796 7.04973,5.91375 1.35323,3.21838 0.004,8.82851 -2.49805,10.38978 -2.42273,1.51155 -9.46649,2.14804 -14.46005,1.30663 z"
     id="path92" />
  <path
     style="opacity:0.25;fill:#f2f2f2;fill-opacity:1;stroke-width:0.860163"
     d="m 216.74533,566.51805 -2.58049,-0.5557 0.12671,-42.56571 c 0.0697,-23.41114 0.37872,-47.30736 0.68674,-53.1027 l 0.56004,-10.53699 h -2.84283 c -1.56355,0 -4.19502,0.40831 -5.84772,0.90735 -1.65269,0.49905 -11.35929,1.2859 -21.57024,1.74858 l -18.56537,0.84123 -9.9224,-3.00762 c -12.3709,-3.74979 -22.11863,-7.99795 -31.99605,-13.94421 -4.21062,-2.53481 -7.88782,-4.605 -8.17155,-4.60041 -0.28373,0.004 -2.96654,2.72043 -5.96181,6.0352 -6.10892,6.76058 -8.51177,8.27617 -15.032187,9.48154 -12.089092,2.23479 -20.404883,-4.00111 -20.359506,-15.26732 0.02534,-6.29254 3.13731,-12.3265 8.433361,-16.35191 l 3.722561,-2.82943 H 99.30797 c 10.51321,0 11.95325,-0.17356 12.48938,-1.50528 3.91583,-9.72675 20.46926,-58.9896 27.56456,-82.03187 6.87179,-22.31642 8.19345,-24.47415 13.35579,-21.8046 2.12859,1.10074 2.526,1.8254 2.526,4.60604 0,5.53277 -12.19898,46.57253 -21.63382,72.78042 -10.31027,28.63964 -11.91252,33.261 -11.91252,34.35908 0,1.31546 14.65255,11.07393 19.56758,13.03185 4.84688,1.93077 6.35366,2.554 9.99111,4.13248 6.1223,2.65679 13.78664,3.97167 26.35582,4.52156 13.23861,0.57916 19.7652,-0.11717 30.35642,-3.23879 4.3191,-1.273 6.03138,-2.21578 6.55664,-3.61008 0.94226,-2.50131 2.39439,-34.5786 3.6396,-80.39864 l 1.0116,-37.22368 -2.3229,-2.42457 c -4.17826,-4.36116 -3.57438,-12.18967 1.1347,-14.70989 2.78196,-1.48886 7.38078,-1.02436 9.96226,1.00623 l 2.40514,1.89189 -0.57312,47.7825 c -0.31523,26.28038 -0.8253,54.26598 -1.13352,62.19023 -0.63241,16.25971 -0.60865,16.31264 5.53203,12.32327 6.3749,-4.14156 9.42458,-7.71433 10.03764,-11.75936 0.3159,-2.08423 0.77688,-4.84926 1.02443,-6.14448 1.04147,-5.44934 9.1521,-7.75373 13.65573,-3.87988 3.23592,2.78343 3.82732,8.14246 1.34229,12.16332 -2.49729,4.0407 -15.70901,16.39843 -25.14316,23.51791 -7.04122,5.31368 -7.60138,5.96014 -7.61512,8.78849 -0.008,1.67911 -0.58113,22.40659 -1.27326,46.06106 -0.69214,23.65447 -1.26607,43.65476 -1.27541,44.44507 -0.0108,0.9061 0.94391,1.64799 2.58411,2.00824 3.42772,0.75286 7.39279,4.16233 8.09518,6.96085 0.94236,3.75462 -1.03408,8.09152 -4.3116,9.46095 -2.94834,1.2319 -9.91919,1.44633 -14.55622,0.44778 z"
     id="path94" />
  <path
     style="opacity:0.25;fill:#f2f2f2;fill-opacity:1;stroke-width:0.860163"
     d="m 229.47545,349.65612 c 0,-2.60199 0.16125,-3.66644 0.35834,-2.36544 0.19708,1.30099 0.19708,3.4299 0,4.73089 -0.19709,1.301 -0.35834,0.23655 -0.35834,-2.36545 z"
     id="path96" />
  <path
     style="opacity:0.25;fill:#f2f2f2;fill-opacity:1;stroke-width:0.860163"
     d="m 407.77981,567.4996 c -5.26254,-0.40848 -8.76652,-2.74311 -20.0218,-13.34014 -4.64771,-4.37589 -11.15398,-10.27861 -14.45837,-13.11714 -3.30439,-2.83854 -6.55494,-5.67627 -7.22343,-6.30606 -0.6685,-0.62979 -3.38203,-2.72232 -6.03007,-4.65008 -7.09476,-5.16491 -20.51444,-19.06163 -25.64647,-26.55814 -5.72313,-8.35994 -11.57552,-19.98977 -14.34781,-28.51188 -2.39214,-7.35352 -4.8179,-18.26621 -4.8179,-21.67417 0,-1.20267 -0.29031,-2.18655 -0.64512,-2.1864 -0.35482,1.5e-4 -0.55473,-4.7415 -0.44424,-10.53699 0.31739,-16.6487 3.63271,-29.78308 11.45306,-45.37385 5.92288,-11.80793 11.88222,-19.88638 22.04373,-29.88234 l 8.95424,-8.80836 -1.31174,-3.86364 c -1.5255,-4.49326 -0.8417,-7.2324 2.74377,-10.99079 1.7951,-1.88168 3.03231,-2.36545 6.04947,-2.36545 3.19138,0 4.40428,0.53821 7.64856,3.39393 l 3.85571,3.39394 7.02831,-2.62955 c 3.86558,-1.44625 10.51198,-3.80763 14.76978,-5.24751 4.25781,-1.43988 8.02584,-3.04185 8.37342,-3.55992 0.34757,-0.51807 0.63788,-0.67033 0.64512,-0.33835 0.0303,1.38752 5.07844,-1.70633 7.73421,-4.74004 7.38459,-8.43551 16.09332,-8.70579 23.64745,-0.73391 2.84999,3.00759 4.66141,3.95087 11.91395,6.20406 4.70413,1.46146 12.18386,4.21462 16.62164,6.11813 l 8.06868,3.46093 3.03055,-2.66085 c 8.26818,-7.25956 21.26327,2.52831 15.34628,11.55879 -1.37007,2.09098 -1.29985,2.20882 5.74797,9.64656 3.92424,4.14135 9.42294,10.6118 12.21934,14.37877 5.11789,6.89422 12.44806,20.98952 14.4429,27.77251 0.59131,2.01063 1.42376,3.65569 1.84989,3.65569 0.42613,0 0.54782,0.36722 0.27043,0.81603 -0.54136,0.87595 0.92259,8.21291 2.07546,10.40174 0.3841,0.72924 0.61498,9.63193 0.51308,19.78374 -0.17026,16.96094 -0.37003,19.13499 -2.46339,26.80761 -8.77016,32.14466 -25.42392,53.78649 -53.4825,69.50139 -2.83854,1.58979 -5.44535,3.30317 -5.79293,3.8075 -0.34757,0.50433 -0.63788,0.63146 -0.64512,0.28252 -0.0158,-0.76079 -9.78047,5.34154 -10.19176,6.36923 -0.1577,0.39404 -0.67807,0.71643 -1.15637,0.71643 -0.47831,0 -4.02648,2.2628 -7.88482,5.02845 -3.85835,2.76564 -10.58076,7.41052 -14.93869,10.32195 l -7.92351,5.2935 -6.69926,-0.15504 c -3.68459,-0.0852 -8.59935,-0.30253 -10.9217,-0.4828 z m 38.36925,-34.54324 c 17.33504,-4.48373 29.9943,-11.56674 42.42988,-23.74006 9.68919,-9.48483 14.42209,-15.98138 19.43296,-26.67428 5.43701,-11.6023 9.31383,-29.23045 9.26721,-42.13873 -0.043,-11.92029 -3.65194,-30.69052 -7.18138,-37.35113 -0.64595,-1.21899 -1.64284,-3.47435 -2.21533,-5.01189 -0.57248,-1.53754 -1.38099,-2.79552 -1.79669,-2.79552 -0.41569,0 -0.7558,-0.5206 -0.7558,-1.15689 0,-2.28006 -7.2348,-12.29823 -13.66481,-18.92194 -6.06303,-6.24567 -16.91734,-15.0807 -17.82878,-14.512 -0.21663,0.13517 -1.05743,-0.41833 -1.86843,-1.23 -4.33718,-4.34069 -30.86226,-14.47696 -33.28771,-12.72052 -0.60935,0.44127 -2.57438,1.96354 -4.36674,3.38281 -2.77532,2.19763 -3.98727,2.57626 -8.16871,2.55203 -3.97704,-0.023 -5.58672,-0.4975 -8.47232,-2.49722 l -3.56244,-2.46877 -11.17674,2.69131 c -6.14721,1.48023 -13.7823,3.71787 -16.96687,4.97255 -18.51163,7.29333 -36.26214,23.08699 -46.9012,41.73075 -1.2468,2.18489 -2.02242,4.21702 -1.72358,4.51585 0.29883,0.29884 0.0689,0.54334 -0.51096,0.54334 -0.57986,0 -0.81506,0.38707 -0.52268,0.86016 0.29239,0.47309 0.16684,0.86016 -0.27899,0.86016 -0.44583,0 -1.01544,0.67738 -1.2658,1.50529 -0.25036,0.8279 -1.29001,3.7976 -2.31034,6.59933 -1.02033,2.80172 -2.00321,6.09184 -2.18417,7.31138 -0.18097,1.21953 -0.58978,3.18502 -0.90847,4.36774 -0.31868,1.18273 -0.76512,8.02535 -0.99208,15.20583 -0.41204,13.03612 0.73176,22.95243 3.38369,29.33514 0.53425,1.28584 1.05218,2.6282 1.15096,2.98302 0.0988,0.35482 0.27381,0.93543 0.38897,1.29024 0.11517,0.35482 0.1795,0.88758 0.14297,1.18392 -0.25192,2.04365 10.98966,22.12346 15.68845,28.02283 5.53322,6.94704 19.62517,19.1611 23.54097,20.40393 1.05659,0.33535 1.92108,0.92994 1.92108,1.32131 0,1.25837 14.01568,7.67509 19.5687,8.95902 5.3152,1.22895 5.37668,1.22198 5.43423,-0.61607 l 0.0582,-1.85908 0.93339,1.93537 c 1.51264,3.13643 3.00567,2.2687 3.66533,-2.13022 0.91529,-6.10362 3.46937,-10.34926 10.23785,-17.01838 8.93422,-8.80305 14.84947,-11.16133 13.71041,-5.46605 -0.37856,1.89285 -0.0352,3.04318 1.34786,4.51536 1.0207,1.08649 2.23366,3.29285 2.69545,4.90303 1.57275,5.48383 1.04561,7.73066 -3.03111,12.91967 -2.1289,2.70976 -3.87073,5.21055 -3.87073,5.55732 0,1.08637 13.88585,-0.3279 20.81428,-2.11994 z"
     id="path98" />
  <path
     style="opacity:0.25;fill:#f2f2f2;fill-opacity:1;stroke-width:0.860163"
     d="m 414.49874,567.26414 c -12.60148,-0.53887 -11.78169,-0.0824 -30.02169,-16.71877 -7.09634,-6.47247 -17.43622,-15.44319 -22.97752,-19.93494 -27.74865,-22.49296 -40.15329,-43.4851 -46.29596,-78.34579 -1.84967,-10.49718 0.078,-28.92074 4.34617,-41.53697 2.82615,-8.35389 9.75602,-22.17005 14.52884,-28.96629 2.3228,-3.30755 8.37951,-10.3511 13.45935,-15.65232 l 9.23608,-9.6386 -1.04033,-3.47229 c -1.34143,-4.47732 -0.59604,-7.67918 2.47201,-10.61856 4.18003,-4.00472 8.10856,-3.23368 16.75779,3.28902 0.6053,0.45648 6.28319,-1.16513 14.71145,-4.20162 18.38848,-6.6249 21.79941,-8.23902 25.3379,-11.99038 3.97102,-4.2099 6.85017,-5.62539 11.44228,-5.62539 3.83442,0 4.40365,0.2982 12.62632,6.61454 2.01912,1.55101 7.19268,3.94363 11.90085,5.50378 4.5809,1.51799 11.76846,4.24466 15.97232,6.05926 l 7.6434,3.29929 2.92353,-2.56689 c 2.1255,-1.86622 3.79583,-2.56601 6.1192,-2.56367 7.07857,0.007 12.09506,6.47316 9.26614,11.94368 -0.73676,1.42474 -1.33957,2.95872 -1.33957,3.40884 0,0.45011 3.13375,4.2433 6.96387,8.4293 9.62088,10.51477 14.58675,17.34251 19.58797,26.93206 9.84409,18.87551 10.80838,23.30751 10.76812,49.49186 l -0.0317,20.6439 -2.78635,9.03171 c -1.53249,4.96744 -4.65093,12.95282 -6.92986,17.74529 -10.29992,21.6602 -22.31104,34.23178 -46.49558,48.66519 -6.38671,3.81161 -19.74074,12.39534 -29.67562,19.07498 l -18.06341,12.14477 z m 25.4588,-32.70778 c 12.52438,-1.97552 28.36519,-8.67134 38.84043,-16.4176 8.0007,-5.91639 20.59184,-19.35252 24.84615,-26.51358 8.56766,-14.4215 12.83483,-29.86511 13.49936,-48.85645 0.25777,-7.36668 0.12569,-13.12054 -0.30128,-13.12446 -0.41814,-0.003 -0.82011,-2.03598 -0.89326,-4.51586 -0.21088,-7.14872 -3.51891,-18.41923 -8.08927,-27.56021 -11.56467,-23.13 -32.00063,-40.20966 -58.75324,-49.10391 -8.31688,-2.76505 -10.08023,-2.79534 -13.16866,-0.2262 -3.75325,3.12216 -5.88556,3.99852 -9.729,3.99852 -3.46087,0 -7.7052,-1.61742 -10.3846,-3.95735 -1.13895,-0.99464 -2.87437,-0.78377 -11.6122,1.411 -13.84236,3.47692 -17.73669,4.80011 -25.42021,8.63715 -24.63866,12.3042 -45.45672,39.50633 -49.72264,64.97063 -0.4665,2.78463 -0.73317,12.22382 -0.5926,20.97598 0.24155,15.03938 0.40099,16.3678 2.9042,24.19714 2.75879,8.62873 7.45017,18.81099 8.66698,18.81099 0.38743,0 0.70442,0.52054 0.70442,1.15677 0,2.17932 6.55288,11.94466 11.72656,17.47533 5.63595,6.02486 14.84325,13.53302 22.69983,18.51077 8.67576,5.49676 24.35139,10.84786 24.35139,8.31269 0,-0.83312 0.22938,-0.84179 1.03219,-0.039 1.98052,1.98051 2.99693,0.99488 4.47946,-4.34382 1.73943,-6.2639 6.09552,-12.45008 12.70384,-18.041 7.77314,-6.57643 10.15589,-7.28517 10.19672,-3.03299 0.0148,1.53754 0.98047,4.34382 2.14601,6.23618 3.2862,5.33549 2.91694,9.78389 -1.31269,15.81366 -1.89236,2.69774 -3.44065,5.17847 -3.44065,5.51273 0,0.89008 8.1775,0.72951 14.62276,-0.28714 z"
     id="path100" />
  <path
     style="opacity:0.25;fill:#f2f2f2;fill-opacity:1;stroke-width:0.860163"
     d="m 408.77541,566.41782 c -6.05801,-0.77624 -9.09869,-2.7102 -20.68047,-13.15342 -4.83169,-4.3567 -15.36378,-13.574 -23.40464,-20.4829 -15.88984,-13.65291 -23.07073,-20.89145 -29.07471,-29.3081 -12.24886,-17.171 -20.38476,-41.74367 -20.37888,-61.54982 0.005,-16.38283 3.31405,-30.14946 10.86239,-45.18888 6.90117,-13.74997 10.18022,-18.19303 24.07582,-32.62233 6.67056,-6.92676 7.13814,-7.6441 6.344,-9.73283 -1.72315,-4.53224 -1.06251,-8.13091 2.06724,-11.26065 1.6085,-1.60851 3.64063,-2.91605 4.51585,-2.90566 1.63124,0.0194 6.7155,2.33409 10.72682,4.88364 2.17927,1.38512 2.65112,1.29514 14.19268,-2.70629 16.07781,-5.57413 23.51789,-9.08056 27.98331,-13.18824 4.00772,-3.68663 9.15252,-5.62226 12.7182,-4.78497 1.21155,0.28449 4.14045,1.95652 6.50868,3.71562 5.61457,4.17046 8.44148,5.5913 18.03063,9.06243 4.37235,1.58273 10.92543,4.12678 14.56239,5.65344 l 6.61267,2.77575 2.5314,-1.87154 c 3.93659,-2.91045 6.35273,-3.55932 9.75529,-2.61982 5.81199,1.60477 7.24008,5.10505 5.26162,12.89631 -0.48857,1.92401 0.61777,3.59273 8.22496,12.40588 10.41166,12.06222 14.01939,17.43166 20.22395,30.09955 6.80622,13.89631 7.37973,16.96858 7.87874,42.20545 l 0.42632,21.56153 -3.4946,10.45205 c -4.43543,13.26602 -8.25952,21.52967 -14.13253,30.53966 -9.17566,14.07671 -18.02832,21.91705 -41.0493,36.35524 -7.33289,4.59901 -20.52571,13.1468 -29.31739,18.9951 l -15.98488,10.63326 -5.51919,-0.11279 c -3.03555,-0.062 -7.74543,-0.39803 -10.46637,-0.74667 z m 34.35151,-32.21394 c 16.26291,-3.4604 31.84813,-11.42413 43.41239,-22.18284 12.17289,-11.32495 19.10856,-21.25587 24.31976,-34.82253 4.96265,-12.91962 6.08972,-20.06748 6.00526,-38.08547 -0.0667,-14.22922 -0.30856,-16.78847 -2.2857,-24.18681 -8.34449,-31.22446 -32.01433,-55.56847 -64.61203,-66.45232 -8.72655,-2.91366 -11.0427,-2.85847 -15.53861,0.37025 -4.92799,3.53902 -10.64649,3.67774 -16.56181,0.40176 l -4.1436,-2.29478 -11.61219,2.95544 c -6.38671,1.62548 -14.62766,4.2121 -18.31323,5.74804 -23.43397,9.76597 -45.21391,34.07559 -53.19536,59.37387 -1.90129,6.02637 -2.03459,7.78239 -2.02428,26.66504 0.0109,20.05593 0.0303,20.26757 2.47367,27.09512 4.10296,11.46484 10.19971,23.2597 16.09801,31.14341 13.01905,17.40136 38.62862,33.68772 52.97483,33.68926 3.58078,3.7e-4 3.61446,-0.0292 5.07352,-4.46086 1.97827,-6.00855 6.08607,-12.23812 11.21107,-17.00181 7.75509,-7.20835 11.50665,-8.52285 11.50665,-4.03182 0,1.08631 0.83345,3.51766 1.85213,5.40302 2.8544,5.28292 2.48339,9.75836 -1.27869,15.42445 -1.73466,2.61259 -3.15393,5.14319 -3.15393,5.62357 0,1.29982 11.01369,1.06832 17.79214,-0.37399 z"
     id="path102" />
  <path
     style="opacity:0.25;fill:#f2f2f2;fill-opacity:1;stroke-width:0.860163"
     d="m 718.43776,567.51099 c -1.95632,-0.20471 -3.54602,-0.94073 -4.04481,-1.87273 -0.95316,-1.781 -1.10466,-15.50638 -0.41392,-37.49838 0.26748,-8.51561 0.70547,-27.41267 0.97333,-41.99346 l 0.48701,-26.51053 -3.34049,0.61391 c -1.83728,0.33766 -3.47033,0.94792 -3.62901,1.35613 -0.15868,0.40823 -0.57424,0.56563 -0.92345,0.34981 -0.34923,-0.21584 -4.28366,0.20705 -8.7432,0.93975 -5.81252,0.95499 -11.51786,1.20872 -20.15054,0.89616 -21.46487,-0.77717 -37.48592,-6.26372 -58.50367,-20.03508 -2.01595,-1.3209 -2.19448,-1.27904 -4.05862,0.95169 -8.37175,10.01808 -11.74011,12.53638 -18.90911,14.13714 -8.36405,1.8676 -17.16156,-2.31908 -20.55007,-9.77964 -4.56613,-10.05334 0.92875,-22.16474 11.94732,-26.33339 4.10556,-1.55326 6.12593,-1.78978 12.22943,-1.43167 4.02126,0.23594 7.98533,0.70314 8.80905,1.03821 1.19182,0.48483 1.85107,-0.21524 3.22834,-3.42829 0.95188,-2.22065 1.53351,-4.35659 1.29252,-4.74654 -0.241,-0.38994 -0.0646,-0.83881 0.39193,-0.99749 1.60424,-0.55756 15.02256,-39.69826 24.999,-72.92112 6.0677,-20.20623 7.67746,-23.87436 10.82386,-24.66405 3.12288,-0.7838 6.71581,2.04291 7.06545,5.55869 0.5315,5.34446 -12.6735,49.2609 -24.35122,80.98594 -4.0923,11.1176 -7.50889,20.79443 -7.59242,21.50406 -0.0835,0.70964 -0.63571,1.80173 -1.22707,2.42689 -2.24757,2.37599 -1.05411,4.06347 6.02113,8.51351 10.04205,6.31604 20.87529,11.18612 30.57379,13.74444 7.07586,1.86651 10.24995,2.20687 20.82093,2.23259 7.22177,0.0175 14.28291,-0.42246 16.77318,-1.04526 2.36544,-0.59158 5.26849,-1.249 6.45122,-1.46092 1.18272,-0.21192 4.18254,-0.96355 6.66626,-1.67028 l 4.51585,-1.28496 0.17755,-6.64223 c 0.0976,-3.65323 0.24039,-8.38406 0.3172,-10.51296 1.0205,-28.28373 2.04904,-60.9858 2.64576,-84.12086 l 0.42812,-16.5981 -3.07456,-3.40316 c -4.27082,-4.72729 -4.32104,-9.20507 -0.15,-13.3761 2.46786,-2.46787 3.53493,-2.92456 6.83333,-2.92456 6.35954,0 8.39056,2.39835 9.54021,11.2657 0.52677,4.06298 0.66303,9.67595 0.3112,12.81886 -0.34423,3.07508 -0.62894,10.0424 -0.63267,15.48293 -0.003,5.44052 -0.26117,17.05272 -0.57206,25.80488 -1.14426,32.21227 -1.3743,63.65203 -0.46574,63.65203 1.30373,0 13.86856,-10.2928 13.99819,-11.46697 0.0611,-0.55296 0.0292,-2.79418 -0.0709,-4.98048 -0.15437,-3.37343 0.22936,-4.44349 2.5352,-7.0697 2.82214,-3.21424 6.92343,-4.65827 10.24034,-3.60552 0.9807,0.31127 2.94972,1.73255 4.37559,3.15844 5.30974,5.30973 2.69138,12.00313 -8.94433,22.86473 -5.1173,4.77684 -15.43812,12.65521 -22.28673,17.01251 -1.08939,0.69311 -1.44413,3.29998 -1.82656,13.42272 -0.70431,18.6431 -1.43741,42.22381 -1.85573,59.69111 -0.20393,8.51561 -0.59778,17.10227 -0.87522,19.08147 l -0.50443,3.59855 3.46695,0.93355 c 7.27052,1.95775 10.19998,9.87875 5.95799,16.10985 -1.89997,2.79088 -2.0455,2.84034 -7.95651,2.70415 -3.31162,-0.0763 -7.47151,-0.29047 -9.24419,-0.47597 z"
     id="path104" />
  <path
     style="opacity:0.25;fill:#f2f2f2;fill-opacity:1;stroke-width:0.860163"
     d="m 715.68009,566.12295 c -1.50897,-1.10338 -1.55394,-3.12505 -1.01891,-45.80366 0.30786,-24.55714 0.81133,-48.27919 1.11883,-52.71567 l 0.55911,-8.06633 -2.9302,0.45672 c -1.61162,0.25119 -6.60741,1.1111 -11.10176,1.91092 -12.28386,2.18602 -34.39908,1.42677 -45.82719,-1.57334 -9.20991,-2.41778 -21.71412,-7.99666 -31.27437,-13.95339 -3.37598,-2.10348 -6.40873,-3.82451 -6.73946,-3.82451 -0.33072,0 -3.5682,3.02869 -7.19438,6.73042 -8.72341,8.90515 -14.91096,11.18415 -23.43309,8.63086 -16.72197,-5.01003 -15.8833,-28.17649 1.25703,-34.72244 3.17762,-1.21354 5.7361,-1.42974 13.06347,-1.10385 10.07802,0.44822 10.60365,0.1969 12.06803,-5.76995 0.34832,-1.41927 1.5551,-4.66742 2.68175,-7.21811 2.8617,-6.47881 14.56284,-41.26168 21.85218,-64.95788 7.34482,-23.87656 9.22451,-28.03296 12.67761,-28.03296 3.13945,0 5.2798,2.41024 5.2798,5.94555 0,4.39741 -3.82341,18.60053 -12.06101,44.80405 -3.97209,12.6351 -19.22737,56.07554 -20.72755,59.02312 -1.63787,3.21811 -0.48554,4.69978 7.60528,9.77899 8.84782,5.55444 19.76852,10.40497 29.48409,13.09563 8.91024,2.46763 29.40778,2.71101 40.2126,0.47746 2.48372,-0.51343 4.51586,-1.28183 4.51586,-1.70756 0,-0.42572 0.35213,-0.55641 0.78251,-0.29042 0.43039,0.26599 2.76271,0.0266 5.18294,-0.53212 3.31925,-0.76617 4.48798,-1.45371 4.75675,-2.7983 0.19598,-0.98042 0.60451,-11.4594 0.90784,-23.28664 0.30333,-11.82723 1.04504,-37.5676 1.64824,-57.20081 0.93259,-30.3547 0.9179,-35.9542 -0.0982,-37.41708 -0.65721,-0.94618 -2.14975,-3.03555 -3.31678,-4.64306 -2.62587,-3.61699 -2.65175,-5.06646 -0.15669,-8.7773 3.47811,-5.17292 11.23564,-6.01485 14.54759,-1.57885 2.37441,3.18027 3.07041,12.4698 2.31039,30.83671 -0.36389,8.79369 -0.92756,33.69712 -1.2526,55.34096 -0.46793,31.15831 -0.36781,39.35244 0.48083,39.35244 2.20318,0 14.47508,-10.30623 14.59513,-12.25731 0.0218,-0.35482 0.0397,-2.42566 0.0397,-4.60188 0,-3.35294 0.44629,-4.40303 2.92455,-6.8813 2.31581,-2.3158 3.6157,-2.92455 6.24497,-2.92455 3.70175,0 7.52065,2.8393 8.97938,6.67606 2.04674,5.38333 -7.32514,16.70874 -23.67769,28.61324 -4.20697,3.06264 -8.32672,6.2113 -9.155,6.99704 -2.0668,1.96065 -2.33115,5.67786 -3.79264,53.33183 -0.69155,22.54881 -1.36536,41.44127 -1.49737,41.98323 -0.13201,0.54196 1.30827,1.52751 3.20063,2.1901 7.10611,2.48815 9.50829,8.85984 5.75042,15.25282 -1.36342,2.31948 -1.5508,2.36545 -9.64221,2.36545 -5.54542,0 -8.76951,-0.37859 -9.83041,-1.15433 z"
     id="path106" />
  <path
     style="opacity:0.25;fill:#f2f2f2;fill-opacity:1;stroke-width:0.860163"
     d="m 719.08033,566.51009 c -3.33526,-0.50703 -3.45487,-0.64161 -3.90489,-4.39379 -0.60696,-5.06075 -0.0307,-64.5164 0.8337,-86.01626 0.37091,-9.22525 0.61585,-16.85489 0.54431,-16.95477 -0.0716,-0.0999 -4.37068,0.5973 -9.55363,1.54929 -11.90741,2.18711 -33.25116,2.35733 -44.61253,0.3558 -9.72333,-1.71296 -22.4981,-6.70511 -34.05412,-13.30775 -4.96744,-2.83819 -9.37382,-5.16678 -9.79195,-5.17463 -0.41813,-0.008 -3.59612,2.67952 -7.06219,5.97194 -3.46607,3.29243 -7.94852,6.82626 -9.96101,7.85295 -7.10049,3.6224 -16.5242,1.71671 -21.65322,-4.37878 -7.44807,-8.85153 -2.9087,-23.23793 8.89234,-28.18207 2.08585,-0.87387 5.91652,-1.22712 12.55187,-1.15744 11.25131,0.11813 11.0831,0.22625 14.57096,-9.36642 4.04064,-11.113 19.56552,-57.29017 25.26521,-75.14882 6.06513,-19.00366 8.4231,-23.17472 12.01446,-21.25268 3.04163,1.62783 3.59154,4.34638 2.21246,10.93769 -2.92501,13.98003 -12.99802,45.89873 -24.52788,77.72235 -3.85657,10.64451 -7.19813,20.57164 -7.42571,22.06028 -0.38412,2.51266 -0.0325,2.96555 4.90726,6.32006 12.34222,8.38144 28.57419,14.94392 40.65388,16.43608 9.58655,1.1842 27.74694,0.50645 33.75759,-1.25984 2.36545,-0.69512 5.91018,-1.51795 7.87717,-1.82851 1.967,-0.31057 4.19072,-1.02052 4.94162,-1.57768 1.45275,-1.0779 1.61648,-4.62592 3.97245,-86.08034 l 0.91796,-31.73726 -3.0485,-4.59138 c -1.67667,-2.52526 -3.04851,-5.51281 -3.04851,-6.63902 0,-4.937 7.28015,-9.4327 12.21612,-7.5438 1.27834,0.48919 2.98759,2.16406 3.79833,3.72193 1.82698,3.51057 1.90018,9.93483 0.86288,75.73126 -0.84261,53.44705 -1.2122,50.17968 5.1428,45.46563 8.54264,-6.3368 9.13135,-7.10868 9.94146,-13.0346 0.59635,-4.36239 1.28362,-6.07585 3.20973,-8.00241 4.32227,-4.3233 11.52671,-2.74658 13.92688,3.04796 0.99891,2.41156 0.87578,3.09712 -1.30382,7.26013 -2.78606,5.3213 -10.56144,12.93696 -22.82851,22.35956 -4.71524,3.62189 -8.38839,6.88425 -8.16254,7.24969 0.22586,0.36544 -0.0211,0.80833 -0.54865,0.9842 -1.26211,0.4207 -2.17448,15.07043 -3.31061,53.15725 -0.50099,16.79468 -1.13389,32.96156 -1.40645,35.92642 l -0.49556,5.39065 3.29564,1.35806 c 6.9756,2.87449 9.45443,7.81599 6.76442,13.48476 -1.88728,3.97714 -6.16667,4.83565 -16.37122,3.28431 z"
     id="path108" />
  <path
     style="opacity:0.25;fill:#f2f2f2;fill-opacity:1;stroke-width:0.860163"
     d="m 721.38951,566.39436 c -2.51466,-0.36476 -4.8371,-0.92799 -5.16097,-1.25163 -0.83749,-0.83686 -0.88333,-50.4139 -0.0743,-80.4155 0.37594,-13.94206 0.5335,-25.49924 0.35014,-25.6826 -0.18337,-0.18337 -3.93659,0.26775 -8.34048,1.00249 -17.41867,2.90611 -38.6648,2.58717 -51.67088,-0.77566 -7.15289,-1.84944 -19.95667,-7.35418 -29.11884,-12.51907 -4.0965,-2.30929 -7.97577,-4.18934 -8.62059,-4.17789 -0.64482,0.0114 -4.26899,2.74351 -8.0537,6.07126 -9.03004,7.93977 -10.90034,8.90281 -17.20326,8.85824 -6.00122,-0.0424 -9.37625,-1.54408 -13.1624,-5.85627 -8.27377,-9.42326 -1.47906,-25.48562 11.85024,-28.01346 2.50663,-0.47538 7.73481,-0.86432 11.61817,-0.86432 7.89929,0 8.73005,-0.4765 11.30208,-6.4827 0.80295,-1.87504 8.32711,-23.8769 16.72036,-48.89301 8.39324,-25.01612 16.01737,-46.49868 16.94251,-47.73903 2.28458,-3.06299 4.11547,-3.22735 5.88402,-0.52821 1.30756,1.9956 1.36245,2.91277 0.46558,7.78026 -2.0695,11.23158 -10.07003,36.81286 -23.88377,76.36709 -4.43366,12.69533 -8.06121,24.01347 -8.06121,25.15139 0,4.03365 15.76599,13.31718 32.37975,19.06627 l 9.33814,3.2314 16.77317,8.6e-4 c 14.67705,8e-4 17.79436,-0.2503 24.94472,-2.00934 4.49435,-1.10563 8.61461,-2.37717 9.15612,-2.82563 1.33386,-1.10465 1.87233,-10.55413 3.32709,-58.38607 1.91073,-62.82405 1.98816,-59.03365 -1.31576,-64.4032 -1.52947,-2.48567 -2.78086,-5.50203 -2.78086,-6.70298 0,-5.21164 8.80153,-9.11684 12.95818,-5.74948 1.08049,0.87531 2.33611,3.13977 2.79028,5.03213 0.51371,2.14053 0.62128,25.62398 0.28463,62.14675 l -0.5411,58.7061 h 1.77865 c 1.88896,0 11.60157,-7.60066 12.92947,-10.11804 0.43349,-0.82178 1.23526,-3.66803 1.78172,-6.325 1.54709,-7.52215 6.57086,-10.9316 11.98336,-8.13269 9.40812,4.86513 4.22735,13.99135 -18.16031,31.99035 -5.5588,4.46912 -10.1553,8.49983 -10.21443,8.95715 -0.21215,1.64056 -0.35661,2.13438 -0.87231,2.98189 -0.83667,1.37497 -1.51835,13.81717 -2.94236,53.70416 -0.73361,20.54858 -1.52273,37.66671 -1.75361,38.04029 -0.23089,0.37357 1.34741,1.50992 3.50733,2.5252 4.8747,2.29138 7.32944,5.31161 7.32944,9.0179 0,5.98231 -5.17853,8.5675 -14.46399,7.2206 z"
     id="path110" />
  <path
     style="opacity:0.25;fill:#f2f2f2;fill-opacity:1;stroke-width:0.860163"
     d="m 719.08033,565.70324 -2.58049,-0.5987 0.10142,-53.10388 c 0.0924,-48.39457 -0.022,-53.10324 -1.29024,-53.09673 -0.76542,0.004 -5.64947,0.57698 -10.85346,1.27345 -11.16945,1.49485 -29.40209,1.6731 -38.86011,0.37991 -9.48538,-1.29693 -19.73441,-4.92441 -33.74796,-11.94455 -6.65226,-3.33248 -12.59342,-6.05905 -13.20258,-6.05905 -0.60915,0 -4.38828,2.74818 -8.39805,6.10707 -9.013,7.54998 -11.74328,8.8048 -18.14949,8.34142 -7.61329,-0.5507 -13.04715,-5.28411 -14.84942,-12.93524 -1.01245,-4.29815 1.14946,-10.07632 5.41875,-14.4828 4.63376,-4.78266 7.10862,-5.59151 19.7192,-6.44478 7.18356,-0.48606 9.18927,-0.92142 10.44255,-2.26665 1.6782,-1.80135 3.03903,-5.56992 19.34887,-53.58325 16.18452,-47.64445 17.93282,-51.58347 21.55903,-48.57398 3.83151,3.17988 -0.2023,18.13049 -23.20116,85.99105 -4.08858,12.06379 -7.32154,22.88875 -7.18435,24.05549 0.50091,4.26005 15.69364,13.10198 33.31945,19.39137 l 8.98546,3.20627 18.10966,-0.43598 c 15.18911,-0.36567 19.14698,-0.73819 24.54183,-2.3099 3.53768,-1.03067 6.8869,-2.25134 7.44272,-2.71262 0.55582,-0.46129 1.23485,-3.43531 1.50899,-6.60894 1.11787,-12.94177 3.09549,-74.04182 3.10362,-95.88853 l 0.006,-16.1443 -2.58048,-4.83573 c -3.23381,-6.06002 -3.22547,-7.33857 0.066,-10.10815 3.38885,-2.85153 8.39,-3.04424 10.76775,-0.4149 1.57914,1.74622 1.6386,4.04049 1.6386,63.22219 v 61.41021 l 1.85813,-2.3e-4 c 1.76672,-2.2e-4 9.84456,-5.70819 12.1069,-8.555 0.58442,-0.73541 1.83726,-3.87754 2.7841,-6.98253 1.9795,-6.49141 4.56775,-9.40741 8.35007,-9.40741 2.91807,0 6.77692,2.60869 7.57407,5.12027 1.42806,4.4994 -5.2869,12.64251 -22.19248,26.91242 -5.58972,4.71826 -10.47371,9.40823 -10.85331,10.42217 -1.17466,3.13754 -1.75111,11.8444 -3.05496,46.14189 -0.69241,18.21394 -1.48904,36.47127 -1.77029,40.57183 l -0.51135,7.45557 3.8034,2.22895 c 5.27539,3.09157 6.98068,5.2234 6.98068,8.72669 0,4.57266 -2.6204,6.65746 -8.69724,6.91955 -2.73864,0.11811 -6.14056,-0.0546 -7.55983,-0.38394 z"
     id="path112" />
  <path
     style="opacity:0.25;fill:#f2f2f2;fill-opacity:1;stroke-width:0.860163"
     d="m 413.72258,566.45939 c -8.77029,-0.69359 -11.5695,-1.85662 -18.48243,-7.67913 -14.86888,-12.52353 -45.92046,-40.21328 -50.37594,-44.92194 -19.93193,-21.06455 -30.99622,-52.0398 -28.7249,-80.41732 0.98248,-12.27493 4.25444,-23.80512 10.22783,-36.04219 5.72046,-11.71894 11.1003,-19.29359 21.37585,-30.09652 9.44661,-9.93146 9.80526,-10.52043 8.74486,-14.36089 -0.98221,-3.55728 -0.0333,-6.9038 2.82164,-9.95154 2.44849,-2.6138 4.75696,-2.4405 11.44895,0.85947 l 5.66763,2.79483 11.76695,-4.0339 c 15.56963,-5.3375 21.32494,-8.07533 29.27164,-13.92462 3.02821,-2.22896 5.7304,-3.46867 8.1373,-3.73321 3.20665,-0.35244 4.32705,0.0825 10.17242,3.94927 3.61287,2.38993 9.22543,5.39494 12.47235,6.67779 3.24693,1.28285 10.49609,4.18653 16.10924,6.45261 l 10.20575,4.12016 3.05982,-2.33384 c 4.1262,-3.14721 9.41159,-3.22371 12.67415,-0.18343 2.16622,2.01862 2.27477,2.47643 1.77139,7.47056 l -0.53624,5.32016 4.04624,5.00179 c 2.22543,2.75099 6.17194,7.51777 8.77,10.59285 6.40294,7.57856 10.67134,14.28461 15.60355,24.51464 6.53931,13.56339 6.86872,15.26887 7.81476,40.46046 l 0.8411,22.39705 -3.91171,11.42018 c -4.7102,13.75136 -8.3272,21.50636 -14.30107,30.66215 -5.57865,8.55007 -16.96006,19.9124 -26.57582,26.5313 -17.40386,11.97973 -59.06153,38.68141 -60.63352,38.8648 -0.94618,0.11037 -5.20398,-0.0748 -9.46179,-0.41154 z m 37.41708,-34.00529 c 19.1228,-6.16058 34.80669,-17.06517 47.51392,-33.03517 9.11473,-11.45505 16.18169,-28.39159 17.82222,-42.71239 1.08573,-9.47776 1.11075,-25.44873 0.0525,-33.50651 -1.59907,-12.17555 -8.37123,-28.34613 -16.39055,-39.1374 -5.07299,-6.82652 -14.11231,-15.887 -21.04277,-21.09203 -5.91436,-4.44191 -21.55652,-12.41304 -29.43344,-14.99907 -7.28095,-2.39036 -10.37348,-2.21888 -16.28288,0.90288 -4.21489,2.2266 -5.65228,2.57555 -8.84022,2.14613 -2.09382,-0.28204 -5.11576,-1.28503 -6.71543,-2.22885 -3.94047,-2.32494 -5.08083,-2.22387 -18.81944,1.66803 -13.78547,3.90516 -19.8902,6.44907 -27.7946,11.58232 -14.56861,9.46109 -26.06082,22.18004 -34.72059,38.42684 -7.51461,14.09834 -7.92345,16.22896 -7.91054,41.22465 l 0.0113,21.93415 2.46267,6.45122 c 3.2064,8.39951 8.43242,18.80554 12.95949,25.80488 11.9141,18.42048 37.77318,36.45045 53.99642,37.64841 5.11851,0.37796 5.8525,0.23984 6.33558,-1.19217 3.1465,-9.3274 12.35948,-21.71469 18.51929,-24.90004 3.35503,-1.73496 4.07786,-1.56279 4.74925,1.1312 0.32423,1.30099 1.29079,3.91374 2.14791,5.80609 2.22976,4.92291 1.98481,7.2961 -1.4144,13.70352 -1.65581,3.12117 -3.01057,6.10609 -3.01057,6.63315 0,1.89505 17.72658,0.34265 25.80488,-2.25984 z"
     id="path114" />
  <path
     style="opacity:0.25;fill:#f2f2f2;fill-opacity:1;stroke-width:0.860163"
     d="m 215.65426,565.84216 c -0.86304,-0.34737 -1.05389,-8.82694 -0.9132,-40.57478 0.0978,-22.0746 0.39528,-45.84575 0.66099,-52.82477 l 0.48312,-12.68915 -2.52224,0.002 c -1.38723,8.6e-4 -5.83857,0.39617 -9.89187,0.87824 -4.05329,0.48207 -13.94988,1.21245 -21.9924,1.62305 l -14.62276,0.74655 -12.47236,-4.08326 c -12.36102,-4.0468 -21.58809,-8.1959 -31.44683,-14.14054 -2.81055,-1.69471 -5.5075,-3.08229 -5.99323,-3.08351 -0.48573,-8.6e-4 -3.96939,3.02637 -7.74146,6.72796 -5.5216,5.41842 -7.64508,6.92727 -10.89491,7.74147 -5.912387,1.48124 -10.871784,1.23996 -14.830457,-0.72153 -5.165647,-2.55955 -6.84702,-5.39667 -7.231584,-12.20249 -0.407658,-7.21456 1.757574,-12.20979 7.304372,-16.85133 l 3.811906,-3.18978 12.172352,-0.43009 12.172351,-0.43008 1.82079,-4.73089 c 2.87155,-7.46101 15.04921,-43.61828 24.11712,-71.60725 4.55962,-14.07371 8.9648,-26.42164 9.78929,-27.43984 1.9511,-2.4095 5.7974,-1.61369 6.95829,1.4397 1.53953,4.04927 -8.72702,39.45693 -23.76945,81.977 -4.9086,13.87502 -8.92473,25.9501 -8.92473,26.83352 0,2.19775 14.63761,11.71944 24.21909,15.75438 12.56197,5.29009 17.13508,6.06714 35.99229,6.11564 15.15473,0.039 17.46282,-0.15402 23.92043,-2.0002 4.83978,-1.38365 7.5271,-2.63331 8.32378,-3.87073 1.38874,-2.15702 2.58304,-22.68439 3.85969,-66.3396 0.4704,-16.08504 1.06414,-34.40958 1.31943,-40.72121 l 0.46415,-11.47568 -2.60064,-2.96197 c -1.94551,-2.21582 -2.60065,-3.8091 -2.60065,-6.32473 0,-6.96719 6.43548,-10.12431 12.92392,-6.34023 l 2.72857,1.5913 -0.50247,29.24553 c -0.27637,16.08504 -0.75666,44.05108 -1.06732,62.14675 l -0.56485,32.90122 h 1.97958 c 2.30225,0 10.50851,-5.9359 12.58274,-9.10159 0.78175,-1.19309 1.84759,-4.52788 2.36856,-7.41063 1.13777,-6.29591 3.69847,-8.77981 8.86727,-8.60135 4.51121,0.15575 7.13278,3.23785 7.13278,8.38577 0,3.5587 -0.41914,4.26142 -6.1234,10.26653 -3.36788,3.54549 -10.01608,9.64307 -14.7738,13.55016 -4.7577,3.90709 -9.61708,7.91557 -10.7986,8.90774 l -2.14821,1.80394 -1.09554,36.90338 c -0.60254,20.29685 -1.11617,41.59807 -1.14141,47.33601 l -0.0459,10.43264 2.79553,1.1017 c 4.73569,1.86629 7.53008,5.03915 7.49907,8.51469 -0.0516,5.78227 -3.26761,7.82377 -12.17342,7.72767 -3.461,-0.0373 -6.78371,-0.26553 -7.3838,-0.50705 z"
     id="path116" />
</svg>
